<?xml version="1.0" encoding="UTF-8"?>
<svg xmlns="http://www.w3.org/2000/svg" xmlns:xlink="http://www.w3.org/1999/xlink" viewBox="0 0 48 48" width="48px" height="48px">
<g id="surface46359362">
<path style=" stroke:none;fill-rule:nonzero;fill:rgb(0%,38.039216%,54.509807%);fill-opacity:1;" d="M 0.00390625 35.039062 L 1.921875 35.039062 L 1.921875 27.957031 L 4.589844 34.011719 C 4.917969 34.769531 5.367188 35.035156 6.25 35.035156 C 7.132812 35.035156 7.566406 34.769531 7.894531 34.011719 L 10.5625 28.109375 L 10.5625 35.039062 L 12.480469 35.039062 L 12.480469 27.78125 C 12.480469 27.085938 12.203125 26.746094 11.632812 26.574219 C 10.265625 26.144531 9.347656 26.515625 8.933594 27.445312 L 6.199219 33.605469 L 3.550781 27.445312 C 3.152344 26.515625 2.21875 26.144531 0.847656 26.574219 C 0.277344 26.746094 0 27.085938 0 27.78125 L 0 35.039062 Z M 0.00390625 35.039062 "/>
<path style=" stroke:none;fill-rule:nonzero;fill:rgb(0%,38.039216%,54.509807%);fill-opacity:1;" d="M 13.441406 29.28125 L 15.359375 29.28125 L 15.359375 33.335938 C 15.347656 33.535156 15.425781 34.066406 16.351562 34.082031 C 16.824219 34.089844 19.171875 34.082031 19.199219 34.082031 L 19.199219 29.28125 L 21.121094 29.28125 C 21.128906 29.28125 21.121094 35.25 21.121094 35.273438 C 21.132812 36.746094 19.292969 36.9375 18.449219 36.960938 L 13.441406 36.960938 L 13.441406 36 C 13.453125 36 18.230469 36.003906 18.242188 36 C 19.332031 35.886719 19.203125 35.285156 19.203125 35.105469 L 19.203125 35.039062 L 16.191406 35.039062 C 14.519531 35.027344 13.453125 34.289062 13.441406 33.449219 C 13.441406 33.371094 13.480469 29.316406 13.441406 29.28125 Z M 13.441406 29.28125 "/>
<path style=" stroke:none;fill-rule:nonzero;fill:rgb(90.588236%,56.078434%,0%);fill-opacity:1;" d="M 22.082031 35.039062 L 26.886719 35.039062 C 27.519531 35.039062 28.128906 34.910156 28.617188 34.679688 C 29.425781 34.308594 29.761719 33.804688 29.761719 33.144531 L 29.761719 31.777344 C 29.761719 30.300781 27.929688 30.242188 26.878906 30.242188 L 24.960938 30.242188 C 24.203125 30.242188 24.089844 29.785156 24 29.28125 L 24 28.320312 C 24.089844 27.9375 24.257812 27.421875 24.921875 27.359375 C 25.695312 27.359375 29.757812 27.359375 29.757812 27.359375 L 29.757812 26.402344 L 25.191406 26.402344 C 24.4375 26.402344 22.078125 26.492188 22.078125 28.320312 L 22.078125 29.507812 C 22.078125 30.347656 22.816406 31.03125 24.417969 31.199219 C 24.597656 31.210938 24.777344 31.222656 24.957031 31.222656 C 24.957031 31.222656 26.824219 31.1875 26.878906 31.199219 C 27.957031 31.199219 27.839844 32.039062 27.839844 32.160156 L 27.839844 33.121094 C 27.839844 33.253906 27.808594 34.078125 26.867188 34.078125 C 26.796875 34.078125 22.078125 34.078125 22.078125 34.078125 L 22.078125 35.039062 Z M 22.082031 35.039062 "/>
<path style=" stroke:none;fill-rule:nonzero;fill:rgb(90.588236%,56.078434%,0%);fill-opacity:1;" d="M 40.320312 33.078125 C 40.320312 34.238281 40.976562 34.890625 42.710938 35.019531 C 42.875 35.03125 43.035156 35.039062 43.199219 35.039062 L 48 35.039062 L 48 34.078125 L 43.566406 34.078125 C 42.574219 34.078125 42.238281 33.664062 42.238281 33.070312 L 42.238281 26.398438 L 40.320312 26.398438 Z M 40.320312 33.078125 "/>
<path style=" stroke:none;fill-rule:nonzero;fill:rgb(90.588236%,56.078434%,0%);fill-opacity:1;" d="M 30.703125 33.121094 L 30.703125 28.320312 C 30.703125 27.300781 31.203125 26.597656 32.621094 26.402344 L 37.265625 26.402344 C 38.679688 26.597656 39.34375 27.300781 39.34375 28.320312 L 39.34375 33.101562 C 39.34375 33.929688 39.128906 34.375 38.429688 34.660156 L 39.914062 36 L 37.757812 36 L 36.6875 35.039062 L 35.429688 35.039062 L 33.292969 35.050781 C 32.984375 35.050781 32.65625 35.007812 32.300781 34.910156 C 31.226562 34.617188 30.703125 34.054688 30.703125 33.121094 Z M 32.625 33.121094 C 32.722656 33.589844 33.097656 34.082031 33.765625 34.082031 L 35.628906 34.082031 L 34.558594 33.121094 L 36.734375 33.121094 L 37.253906 33.601562 C 37.253906 33.601562 37.441406 33.449219 37.441406 33.121094 C 37.441406 32.789062 37.425781 28.320312 37.425781 28.320312 C 37.324219 27.886719 36.886719 27.359375 36.234375 27.359375 L 33.765625 27.359375 C 33.015625 27.359375 32.625 27.910156 32.625 28.417969 Z M 32.625 33.121094 "/>
<path style=" stroke:none;fill-rule:nonzero;fill:rgb(0%,38.039216%,54.509807%);fill-opacity:1;" d="M 46.199219 25.390625 C 45.167969 25.359375 44.382812 25.457031 43.707031 25.738281 C 43.515625 25.820312 43.210938 25.824219 43.179688 26.0625 C 43.285156 26.171875 43.300781 26.339844 43.386719 26.472656 C 43.546875 26.734375 43.816406 27.082031 44.058594 27.265625 C 44.324219 27.464844 44.597656 27.679688 44.878906 27.851562 C 45.382812 28.15625 45.945312 28.335938 46.433594 28.640625 C 46.71875 28.824219 47.003906 29.054688 47.28125 29.257812 C 47.421875 29.359375 47.511719 29.515625 47.691406 29.578125 C 47.691406 29.570312 47.691406 29.5625 47.691406 29.550781 C 47.597656 29.429688 47.574219 29.265625 47.488281 29.140625 C 47.359375 29.011719 47.234375 28.886719 47.105469 28.757812 C 46.734375 28.265625 46.261719 27.828125 45.757812 27.46875 C 45.359375 27.183594 44.460938 26.792969 44.292969 26.328125 C 44.28125 26.316406 44.273438 26.308594 44.261719 26.296875 C 44.546875 26.265625 44.878906 26.160156 45.140625 26.09375 C 45.582031 25.972656 45.976562 26.003906 46.429688 25.886719 C 46.636719 25.828125 46.839844 25.769531 47.046875 25.710938 C 47.046875 25.671875 47.046875 25.632812 47.046875 25.59375 C 46.816406 25.359375 46.652344 25.046875 46.402344 24.832031 C 45.742188 24.273438 45.027344 23.714844 44.289062 23.25 C 43.882812 22.992188 43.375 22.824219 42.941406 22.605469 C 42.796875 22.53125 42.539062 22.492188 42.445312 22.371094 C 42.21875 22.078125 42.09375 21.710938 41.917969 21.375 C 41.550781 20.664062 41.1875 19.890625 40.863281 19.148438 C 40.640625 18.640625 40.496094 18.136719 40.21875 17.679688 C 38.886719 15.492188 37.453125 14.171875 35.234375 12.875 C 34.765625 12.597656 34.195312 12.488281 33.59375 12.347656 C 33.269531 12.328125 32.949219 12.308594 32.625 12.285156 C 32.429688 12.203125 32.226562 11.964844 32.039062 11.847656 C 31.304688 11.382812 29.417969 10.371094 28.875 11.699219 C 28.53125 12.539062 29.386719 13.355469 29.695312 13.78125 C 29.910156 14.078125 30.1875 14.414062 30.339844 14.75 C 30.441406 14.96875 30.460938 15.191406 30.546875 15.421875 C 30.757812 15.996094 31.09375 16.652344 31.371094 17.183594 C 31.511719 17.449219 31.664062 17.734375 31.839844 17.972656 C 31.949219 18.121094 32.132812 18.183594 32.164062 18.414062 C 31.980469 18.664062 31.972656 19.058594 31.871094 19.382812 C 31.410156 20.824219 31.585938 22.621094 32.25 23.6875 C 32.453125 24.015625 32.9375 24.722656 33.597656 24.449219 C 34.179688 24.214844 34.050781 23.484375 34.214844 22.839844 C 34.25 22.691406 34.226562 22.585938 34.300781 22.488281 C 34.300781 22.496094 34.300781 22.507812 34.300781 22.519531 C 34.476562 22.867188 34.652344 23.222656 34.828125 23.574219 C 35.222656 24.203125 35.914062 24.859375 36.5 25.304688 C 36.804688 25.53125 37.042969 25.929688 37.4375 26.066406 C 37.4375 26.054688 37.4375 26.046875 37.4375 26.035156 C 37.429688 26.035156 37.417969 26.035156 37.40625 26.035156 C 37.332031 25.914062 37.210938 25.867188 37.113281 25.769531 C 36.886719 25.546875 36.628906 25.265625 36.441406 25.007812 C 35.90625 24.285156 35.433594 23.488281 35.003906 22.664062 C 34.800781 22.269531 34.621094 21.835938 34.449219 21.433594 C 34.382812 21.277344 34.382812 21.042969 34.242188 20.964844 C 34.054688 21.257812 33.773438 21.496094 33.628906 21.84375 C 33.394531 22.398438 33.363281 23.074219 33.277344 23.777344 C 33.226562 23.796875 33.246094 23.78125 33.21875 23.804688 C 32.808594 23.707031 32.664062 23.289062 32.515625 22.925781 C 32.128906 22.015625 32.058594 20.546875 32.398438 19.496094 C 32.484375 19.226562 32.878906 18.371094 32.71875 18.121094 C 32.644531 17.867188 32.390625 17.722656 32.253906 17.53125 C 32.078125 17.296875 31.902344 16.984375 31.78125 16.710938 C 31.46875 16 31.171875 15.175781 30.839844 14.453125 C 30.683594 14.109375 30.414062 13.765625 30.195312 13.460938 C 29.953125 13.121094 29.679688 12.871094 29.492188 12.464844 C 29.425781 12.316406 29.332031 12.085938 29.433594 11.933594 C 29.464844 11.835938 29.507812 11.792969 29.609375 11.757812 C 29.777344 11.628906 30.25 11.800781 30.429688 11.875 C 30.898438 12.070312 31.289062 12.257812 31.6875 12.519531 C 31.878906 12.648438 32.074219 12.894531 32.304688 12.960938 C 32.390625 12.960938 32.480469 12.960938 32.566406 12.960938 C 32.980469 13.054688 33.441406 12.992188 33.828125 13.109375 C 34.511719 13.316406 35.121094 13.636719 35.675781 13.988281 C 37.363281 15.054688 38.746094 16.570312 39.691406 18.382812 C 39.84375 18.675781 39.90625 18.953125 40.039062 19.261719 C 40.3125 19.886719 40.652344 20.527344 40.921875 21.140625 C 41.1875 21.746094 41.449219 22.363281 41.828125 22.867188 C 42.027344 23.136719 42.800781 23.277344 43.148438 23.425781 C 43.394531 23.53125 43.796875 23.636719 44.027344 23.777344 C 44.472656 24.046875 44.902344 24.363281 45.316406 24.65625 C 45.527344 24.804688 46.167969 25.125 46.199219 25.390625 Z M 46.199219 25.390625 "/>
<path style=" stroke:none;fill-rule:nonzero;fill:rgb(0%,38.039216%,54.509807%);fill-opacity:1;" d="M 33.097656 14.222656 C 32.882812 14.21875 32.730469 14.246094 32.570312 14.28125 C 32.570312 14.292969 32.570312 14.300781 32.570312 14.3125 C 32.578125 14.3125 32.589844 14.3125 32.601562 14.3125 C 32.703125 14.523438 32.882812 14.660156 33.011719 14.839844 C 33.109375 15.046875 33.203125 15.25 33.304688 15.453125 C 33.3125 15.445312 33.320312 15.4375 33.332031 15.425781 C 33.511719 15.296875 33.597656 15.09375 33.597656 14.78125 C 33.523438 14.703125 33.511719 14.609375 33.449219 14.515625 C 33.363281 14.394531 33.203125 14.324219 33.097656 14.222656 Z M 33.097656 14.222656 "/>
</g>
</svg>
