<?xml version="1.0" encoding="UTF-8"?>
<svg xmlns="http://www.w3.org/2000/svg" xmlns:xlink="http://www.w3.org/1999/xlink" viewBox="0 0 48 48" width="48px" height="48px">
<g id="surface46420336">
<path style=" stroke:none;fill-rule:nonzero;fill:rgb(71.764708%,10.980392%,10.980392%);fill-opacity:1;" d="M 47.308594 29.902344 C 47.308594 29.195312 45.4375 28.621094 43.125 28.621094 C 41.113281 28.621094 39.441406 29.054688 39.039062 29.632812 C 35.058594 27.75 31.078125 25.871094 27.097656 23.988281 C 25.710938 23.335938 24.128906 23.339844 22.746094 24.003906 C 18.507812 26.042969 14.269531 28.082031 10.03125 30.121094 C 9.074219 29.984375 7.917969 29.898438 6.667969 29.898438 C 3.363281 29.902344 0.691406 30.472656 0.691406 31.179688 L 0.691406 35.019531 C 0.691406 35.058594 0.726562 35.09375 0.738281 35.128906 C 0.578125 35.742188 0.816406 36.464844 1.460938 36.769531 C 7.722656 39.726562 13.980469 42.683594 20.242188 45.640625 C 21.832031 46.394531 23.648438 46.386719 25.234375 45.625 C 32.386719 42.183594 39.535156 38.742188 46.6875 35.300781 C 47.222656 35.042969 47.410156 34.429688 47.253906 33.917969 C 47.277344 33.859375 47.308594 33.800781 47.308594 33.742188 Z M 47.308594 29.902344 "/>
<path style=" stroke:none;fill-rule:nonzero;fill:rgb(89.803922%,22.352941%,20.784314%);fill-opacity:1;" d="M 20.242188 40.824219 C 13.980469 38.027344 7.722656 35.226562 1.460938 32.425781 C 0.4375 31.96875 0.433594 30.511719 1.453125 30.046875 C 8.550781 26.8125 15.648438 23.582031 22.746094 20.347656 C 24.128906 19.71875 25.710938 19.714844 27.097656 20.332031 C 33.625 23.25 40.152344 26.171875 46.679688 29.089844 C 47.515625 29.464844 47.523438 30.660156 46.6875 31.039062 C 39.535156 34.296875 32.386719 37.550781 25.234375 40.808594 C 23.648438 41.527344 21.832031 41.535156 20.242188 40.824219 Z M 20.242188 40.824219 "/>
<path style=" stroke:none;fill-rule:nonzero;fill:rgb(71.764708%,10.980392%,10.980392%);fill-opacity:1;" d="M 47.308594 21.417969 C 47.308594 20.710938 45.4375 20.140625 43.125 20.140625 C 41.113281 20.140625 39.441406 20.574219 39.039062 21.152344 C 35.058594 19.269531 31.078125 17.390625 27.097656 15.507812 C 25.710938 14.855469 24.128906 14.859375 22.746094 15.523438 C 18.507812 17.5625 14.269531 19.601562 10.03125 21.640625 C 9.074219 21.5 7.917969 21.417969 6.667969 21.417969 C 3.363281 21.417969 0.691406 21.992188 0.691406 22.699219 L 0.691406 26.539062 C 0.691406 26.578125 0.726562 26.613281 0.738281 26.648438 C 0.578125 27.261719 0.816406 27.984375 1.460938 28.289062 C 7.722656 31.246094 13.980469 34.203125 20.242188 37.160156 C 21.832031 37.914062 23.648438 37.90625 25.234375 37.144531 C 32.386719 33.703125 39.535156 30.261719 46.6875 26.820312 C 47.222656 26.5625 47.410156 25.949219 47.253906 25.4375 C 47.277344 25.378906 47.308594 25.320312 47.308594 25.261719 Z M 47.308594 21.417969 "/>
<path style=" stroke:none;fill-rule:nonzero;fill:rgb(89.803922%,22.352941%,20.784314%);fill-opacity:1;" d="M 20.242188 32.34375 C 13.980469 29.542969 7.722656 26.746094 1.460938 23.945312 C 0.4375 23.488281 0.433594 22.027344 1.453125 21.5625 C 8.550781 18.332031 15.648438 15.097656 22.746094 11.867188 C 24.128906 11.238281 25.710938 11.230469 27.097656 11.851562 C 33.625 14.769531 40.152344 17.6875 46.679688 20.609375 C 47.515625 20.980469 47.523438 22.175781 46.6875 22.558594 C 39.535156 25.8125 32.386719 29.070312 25.234375 32.324219 C 23.648438 33.046875 21.832031 33.054688 20.242188 32.34375 Z M 20.242188 32.34375 "/>
<path style=" stroke:none;fill-rule:nonzero;fill:rgb(71.764708%,10.980392%,10.980392%);fill-opacity:1;" d="M 47.308594 12.9375 C 47.308594 12.230469 45.4375 11.660156 43.125 11.660156 C 41.113281 11.660156 39.441406 12.09375 39.039062 12.671875 C 35.058594 10.789062 31.078125 8.910156 27.097656 7.027344 C 25.710938 6.375 24.128906 6.378906 22.746094 7.042969 C 18.507812 9.082031 14.269531 11.121094 10.03125 13.160156 C 9.074219 13.019531 7.917969 12.9375 6.667969 12.9375 C 3.363281 12.9375 0.691406 13.511719 0.691406 14.21875 L 0.691406 18.058594 C 0.691406 18.097656 0.726562 18.128906 0.738281 18.164062 C 0.578125 18.78125 0.816406 19.503906 1.460938 19.804688 C 7.722656 22.765625 13.980469 25.722656 20.242188 28.679688 C 21.832031 29.429688 23.648438 29.425781 25.234375 28.660156 C 32.386719 25.222656 39.535156 21.78125 46.6875 18.339844 C 47.222656 18.082031 47.410156 17.46875 47.253906 16.957031 C 47.277344 16.898438 47.308594 16.839844 47.308594 16.777344 Z M 47.308594 12.9375 "/>
<path style=" stroke:none;fill-rule:nonzero;fill:rgb(89.803922%,22.352941%,20.784314%);fill-opacity:1;" d="M 20.242188 23.863281 C 13.980469 21.0625 7.722656 18.265625 1.460938 15.464844 C 0.4375 15.007812 0.433594 13.546875 1.453125 13.082031 C 8.550781 9.851562 15.648438 6.617188 22.746094 3.386719 C 24.128906 2.757812 25.710938 2.75 27.097656 3.371094 C 33.625 6.289062 40.152344 9.207031 46.679688 12.128906 C 47.515625 12.5 47.523438 13.695312 46.6875 14.078125 C 39.535156 17.332031 32.386719 20.589844 25.234375 23.847656 C 23.648438 24.566406 21.832031 24.574219 20.242188 23.863281 Z M 20.242188 23.863281 "/>
<path style=" stroke:none;fill-rule:nonzero;fill:rgb(100%,100%,100%);fill-opacity:1;" d="M 18.171875 13.722656 C 18.167969 14.878906 15.105469 16.003906 12.515625 16.039062 C 9.832031 16.070312 6.664062 14.9375 6.652344 13.761719 C 6.644531 12.582031 9.808594 11.363281 12.550781 11.390625 C 15.140625 11.417969 18.171875 12.570312 18.171875 13.722656 Z M 18.171875 13.722656 "/>
<path style=" stroke:none;fill-rule:nonzero;fill:rgb(100%,100%,100%);fill-opacity:1;" d="M 16.273438 17.863281 C 18.929688 18.996094 21.582031 20.132812 24.238281 21.265625 C 25.410156 19.535156 26.578125 17.804688 27.75 16.074219 C 23.921875 16.667969 20.097656 17.265625 16.273438 17.863281 Z M 16.273438 17.863281 "/>
<path style=" stroke:none;fill-rule:nonzero;fill:rgb(100%,100%,100%);fill-opacity:1;" d="M 21.625 8.210938 C 20.402344 8.65625 19.179688 9.097656 17.957031 9.542969 C 19.628906 9.691406 21.304688 9.835938 22.976562 9.984375 C 23.507812 10.867188 24.042969 11.75 24.574219 12.632812 C 24.902344 11.832031 25.230469 11.03125 25.554688 10.226562 C 26.984375 10.117188 28.410156 10.007812 29.839844 9.894531 C 28.730469 9.429688 27.625 8.964844 26.519531 8.496094 C 26.800781 7.824219 27.082031 7.148438 27.363281 6.472656 C 26.289062 6.792969 25.210938 7.117188 24.136719 7.4375 C 22.949219 6.96875 21.761719 6.503906 20.574219 6.035156 C 20.921875 6.757812 21.273438 7.484375 21.625 8.210938 Z M 21.625 8.210938 "/>
<path style=" stroke:none;fill-rule:nonzero;fill:rgb(71.764708%,10.980392%,10.980392%);fill-opacity:1;" d="M 27.625 13.585938 C 30.148438 12.582031 32.667969 11.574219 35.191406 10.570312 C 37.367188 11.496094 39.546875 12.421875 41.722656 13.347656 C 39.277344 14.320312 36.835938 15.289062 34.390625 16.265625 C 32.136719 15.371094 29.882812 14.480469 27.625 13.585938 Z M 27.625 13.585938 "/>
<path style=" stroke:none;fill-rule:nonzero;fill:rgb(62.7451%,10.980392%,10.980392%);fill-opacity:1;" d="M 35.191406 10.640625 C 35.183594 12.410156 35.179688 14.179688 35.175781 15.953125 C 37.359375 15.082031 39.542969 14.214844 41.722656 13.347656 C 39.546875 12.445312 37.367188 11.542969 35.191406 10.640625 Z M 35.191406 10.640625 "/>
</g>
</svg>
