<?xml version="1.0" encoding="UTF-8"?>
<svg xmlns="http://www.w3.org/2000/svg" xmlns:xlink="http://www.w3.org/1999/xlink" viewBox="0 0 48 48" width="48px" height="48px">
<g id="surface46398761">
<path style=" stroke:none;fill-rule:nonzero;fill:rgb(95.686275%,31.764707%,11.764706%);fill-opacity:1;" d="M 46.566406 21.644531 L 26.355469 1.433594 C 25.734375 0.8125 24.867188 0.441406 24 0.441406 C 23.132812 0.441406 22.265625 0.8125 21.644531 1.433594 L 17.304688 5.773438 L 22.386719 10.855469 C 22.882812 10.609375 23.378906 10.484375 24 10.484375 C 26.109375 10.484375 27.71875 12.097656 27.71875 14.203125 C 27.71875 14.824219 27.597656 15.320312 27.347656 15.816406 L 32.308594 20.777344 C 32.804688 20.527344 33.300781 20.402344 33.921875 20.402344 C 36.027344 20.402344 37.640625 22.015625 37.640625 24.125 C 37.640625 26.230469 36.027344 27.84375 33.921875 27.84375 C 31.8125 27.84375 30.199219 26.230469 30.199219 24.125 C 30.199219 23.503906 30.324219 23.007812 30.570312 22.511719 L 25.613281 17.550781 C 25.488281 17.550781 25.363281 17.675781 25.238281 17.675781 L 25.238281 30.570312 C 26.726562 31.066406 27.71875 32.433594 27.71875 34.042969 C 27.71875 36.152344 26.109375 37.765625 24 37.765625 C 21.890625 37.765625 20.28125 36.152344 20.28125 34.042969 C 20.28125 32.433594 21.273438 31.066406 22.761719 30.570312 L 22.761719 17.550781 C 21.273438 17.054688 20.28125 15.691406 20.28125 14.078125 C 20.28125 13.460938 20.402344 12.964844 20.652344 12.46875 L 15.566406 7.382812 L 1.433594 21.644531 C 0.8125 22.265625 0.441406 23.132812 0.441406 24 C 0.441406 24.867188 0.8125 25.734375 1.433594 26.355469 L 21.644531 46.566406 C 22.265625 47.1875 23.132812 47.558594 24 47.558594 C 24.867188 47.558594 25.734375 47.1875 26.355469 46.566406 L 46.566406 26.355469 C 47.1875 25.734375 47.558594 24.867188 47.558594 24 C 47.558594 23.132812 47.1875 22.265625 46.566406 21.644531 Z M 46.566406 21.644531 "/>
</g>
</svg>
