<?xml version="1.0" encoding="UTF-8"?>
<svg xmlns="http://www.w3.org/2000/svg" xmlns:xlink="http://www.w3.org/1999/xlink" viewBox="0 0 50 50" width="50px" height="50px">
  <g id="surface49284554">
    <path style=" stroke:none;fill-rule:nonzero;fill:rgb(0%,0%,0%);fill-opacity:1;" d="M 46.371094 25.230469 L 49.53125 19.882812 C 49.65625 19.613281 49.675781 19.308594 49.578125 19.03125 L 43.324219 1.113281 C 43.128906 0.566406 42.558594 0.253906 42 0.390625 L 23.613281 4.871094 C 23.261719 4.957031 22.972656 5.207031 22.839844 5.542969 L 20.882812 10.441406 L 14.921875 10.441406 C 14.609375 10.441406 14.308594 10.570312 14.097656 10.796875 L 0.65625 25.359375 C 0.242188 25.808594 0.265625 26.507812 0.707031 26.929688 L 14.800781 40.371094 C 15.007812 40.570312 15.289062 40.679688 15.570312 40.679688 L 22 40.679688 L 23.957031 45.574219 C 24.101562 45.9375 24.425781 46.195312 24.808594 46.261719 L 44.363281 49.621094 C 44.425781 49.636719 44.492188 49.640625 44.550781 49.640625 C 45.074219 49.640625 45.53125 49.28125 45.644531 48.761719 L 49.613281 30.582031 C 49.675781 30.300781 49.625 30.007812 49.472656 29.761719 Z M 20.882812 10.441406 L 36.667969 7.546875 L 28.359375 23.878906 L 9.507812 23.878906 Z M 22.003906 40.679688 L 9.507812 28.359375 L 28.359375 28.359375 L 38.160156 43.109375 Z M 42.234375 40.566406 L 32.839844 26.121094 L 41.050781 9.789062 L 46.371094 25.234375 Z M 42.234375 40.566406 " />
  </g>
</svg>