<svg xmlns="http://www.w3.org/2000/svg" xml:space="preserve" width="50" height="50"><path d="M49.059 22.774 27.228.944a3.22 3.22 0 0 0-4.556 0L.942 22.67a3.224 3.224 0 0 0 0 4.555L22.774 49.06a3.224 3.224 0 0 0 4.555 0l21.73-21.73a3.224 3.224 0 0 0 0-4.555" style="display:inline;fill:#f3f7ee;fill-opacity:1;fill-rule:nonzero;stroke:none;stroke-width:.544148"/><path d="M24.95 0c-.825 0-1.65.314-2.278.943l-5.703 5.703 3.885-3.882 14.925 15.402c3.947 3.947 4.758 10.477.81 14.424l-5.724 6.014c3.955-7.155 6.197-11.026 1.674-15.803l-.598-.598s-2.256 1.09-7.162 7.162c-1.864 2.732-3.226 5.689.446 13.647l-3.899-3.899a9.38 9.38 0 0 1 0-13.265l3.504-3.504a5.153 5.153 0 0 0 0-7.287l-9.266 9.265a10.066 10.066 0 0 0-2.203 5.602l.018 2.685c-2.232-5.501-1.448-11.125 1.299-14.037l6.465-6.69c.309-.377.296-.437-.055-.85l-4.12-4.386L.942 22.672a3.224 3.224 0 0 0 0 4.555l21.832 21.832a3.224 3.224 0 0 0 4.555 0l21.73-21.73a3.224 3.224 0 0 0 0-4.556L27.229.943A3.213 3.213 0 0 0 24.95 0Z" style="display:inline;fill:#5f9825;fill-opacity:1;fill-rule:nonzero;stroke:none;stroke-width:.544148"/></svg>