<?xml version="1.0" encoding="UTF-8" standalone="no"?>
<!-- Created with Inkscape (http://www.inkscape.org/) -->

<svg
   width="72"
   height="72"
   viewBox="0 0 19.05 19.05"
   version="1.1"
   id="svg5"
   inkscape:version="1.1 (c68e22c387, 2021-05-23)"
   sodipodi:docname="MAL.svg"
   xmlns:inkscape="http://www.inkscape.org/namespaces/inkscape"
   xmlns:sodipodi="http://sodipodi.sourceforge.net/DTD/sodipodi-0.dtd"
   xmlns="http://www.w3.org/2000/svg"
   xmlns:svg="http://www.w3.org/2000/svg">
  <sodipodi:namedview
     id="namedview7"
     pagecolor="#505050"
     bordercolor="#eeeeee"
     borderopacity="1"
     inkscape:pageshadow="0"
     inkscape:pageopacity="0"
     inkscape:pagecheckerboard="0"
     inkscape:document-units="mm"
     showgrid="false"
     units="px"
     inkscape:zoom="2"
     inkscape:cx="342.25"
     inkscape:cy="309.75"
     inkscape:window-width="1280"
     inkscape:window-height="961"
     inkscape:window-x="1912"
     inkscape:window-y="-8"
     inkscape:window-maximized="1"
     inkscape:current-layer="layer1"
     width="72px" />
  <defs
     id="defs2" />
  <g
     inkscape:label="Ebene 1"
     inkscape:groupmode="layer"
     id="layer1">
    <g
       id="g269"
       transform="matrix(0.00719421,0,0,0.00719421,-0.00591918,-0.0074055)">
      <path
         style="fill:#fcfcfd;stroke-width:2.64864"
         d="m 1230.4463,1737.7736 c -38.9282,-76.821 -80.1767,-190.8279 -99.0597,-273.7915 -74.3195,-326.5268 52.6596,-522.61752 365.3457,-564.1943 68.1449,-9.06099 236.6608,-12.09986 248.1647,-4.47518 2.1831,1.44701 48.4835,146.55218 48.4835,151.94728 0,1.0235 -71.2155,2.2348 -158.2566,2.6917 -178.314,0.9361 -169.797,0.061 -214.5963,22.0385 -54.1219,26.5505 -98.4022,88.6817 -107.4839,150.8141 -2.8557,19.5371 -9.8534,18.3791 120.6853,19.9704 64.5153,0.7864 117.4841,1.3824 117.7085,1.3243 0.2243,-0.058 1.2815,-36.7562 2.3491,-81.5514 l 1.9411,-81.4458 h 102.9345 102.9345 v 106.6079 c 0,58.6344 0.7928,186.1666 1.7592,283.405 l 1.7571,176.797 H 1660.0588 1555.0024 V 1519.4523 1390.9931 H 1428.034 1301.0656 l 1.406,9.9324 c 13.1146,92.6438 45.9739,191.3886 79.2749,238.2272 4.875,6.8568 8.6053,12.6902 8.2896,12.9632 -0.7841,0.678 -145.4388,94.8733 -149.4659,97.3282 -2.1317,1.2995 -5.546,-2.6364 -10.1239,-11.6705 z M 249.22071,1271.7719 V 895.6321 l 98.40755,0.69439 98.40755,0.6944 82.74943,112.07151 c 45.51216,61.6393 83.32397,112.646 84.02624,113.3483 0.70223,0.7022 42.049,-50.0279 91.88171,-112.7337 L 795.2981,895.69657 h 96.44721 96.44721 v 376.10753 376.1075 h -94.01241 -94.01242 l -0.67662,-232.0427 -0.67663,-232.0426 -89.77835,106.5823 c -87.06592,103.3622 -89.90667,106.4157 -94.02688,101.0711 -24.49765,-31.7781 -171.59873,-212.146 -173.09961,-212.2459 -1.09257,-0.073 -1.98649,105.35 -1.98649,234.2728 v 234.405 h -95.3512 -95.3512 z m 1679.24059,-2.3674 V 890.86634 l 68.2026,1.1657 c 37.5114,0.64115 80.4195,1.84266 95.3512,2.67001 l 27.1486,1.50428 v 295.06897 295.069 l 25.8243,0.3783 c 14.2034,0.2082 76.5288,1.102 138.501,1.9865 l 112.6766,1.6082 -18.7115,78.135 -18.7116,78.135 -215.1406,0.6777 -215.1406,0.6778 z"
         id="path273" />
      <path
         style="fill:#2d50a1;stroke-width:2.64864"
         d="M 0.24812578,1324.777 V 0.45472667 H 1324.5704 2648.8926 V 1324.777 2649.0992 H 1324.5704 0.24812578 Z M 1316.6244,1700.0478 c 40.0608,-26.0896 73.0961,-47.6589 73.4117,-47.9319 0.3157,-0.273 -3.4146,-6.1064 -8.2896,-12.9632 -33.301,-46.8386 -66.1603,-145.5834 -79.2749,-238.2272 l -1.406,-9.9324 h 126.9684 126.9684 v 128.4592 128.4593 h 105.0564 105.0564 l -1.7571,-176.797 c -0.9664,-97.2384 -1.758,-224.7706 -1.7592,-283.405 v -106.6079 h -102.9345 -102.9345 l -1.9411,81.4458 c -1.0676,44.7952 -2.1247,81.4933 -2.3491,81.5514 -0.2244,0.058 -53.1932,-0.5379 -117.7085,-1.3243 -130.5387,-1.5913 -123.541,-0.4333 -120.6853,-19.9704 9.0817,-62.1324 53.362,-124.2636 107.4839,-150.8141 44.7993,-21.9771 36.2823,-21.1024 214.5963,-22.0385 87.0411,-0.4569 158.2566,-1.6682 158.2566,-2.6917 0,-5.3951 -46.3004,-150.50027 -48.4835,-151.94728 -11.5039,-7.62468 -180.0198,-4.58581 -248.1647,4.47518 -312.6861,41.57678 -439.6652,237.6675 -365.3457,564.1943 22.2597,97.7993 96.9008,292.9494 109.1836,285.462 1.7691,-1.0784 35.9935,-23.3067 76.0542,-49.3963 z M 439.92311,1413.5066 c 0,-128.9228 0.89392,-234.3456 1.98649,-234.2728 1.50088,0.1 148.60196,180.4678 173.09961,212.2459 4.12021,5.3446 6.96096,2.2911 94.02688,-101.0711 l 89.77835,-106.5823 0.67663,232.0426 0.67662,232.0427 h 94.01242 94.01241 V 1271.8041 895.69657 H 891.74531 795.2981 L 704.69319,1009.707 c -49.83271,62.7058 -91.17948,113.4359 -91.88171,112.7337 -0.70227,-0.7023 -38.51408,-51.709 -84.02624,-113.3483 l -82.74943,-112.07151 -98.40755,-0.6944 -98.40755,-0.69439 v 376.1398 376.1397 h 95.3512 95.3512 z m 1937.53099,154.9457 18.7115,-78.135 -112.6766,-1.6082 c -61.9722,-0.8845 -124.2976,-1.7784 -138.501,-1.9865 l -25.8243,-0.3783 v -295.069 -295.06897 l -27.1486,-1.50428 c -14.9317,-0.82735 -57.8398,-2.02886 -95.3512,-2.67001 l -68.2026,-1.1657 v 378.53816 378.5383 l 215.1406,-0.6778 215.1406,-0.6777 z"
         id="path271" />
    </g>
  </g>
</svg>
