<?xml version="1.0" encoding="UTF-8" standalone="no"?>
<!-- Generator: Adobe Illustrator 23.0.3, SVG Export Plug-In . SVG Version: 6.00 Build 0)  -->

<svg
   version="1.1"
   id="Layer_1"
   x="0px"
   y="0px"
   viewBox="0 0 72 72"
   style="enable-background:new 0 0 72 72;"
   xml:space="preserve"
   sodipodi:docname="Minecraft.svg"
   inkscape:version="1.1 (c68e22c387, 2021-05-23)"
   xmlns:inkscape="http://www.inkscape.org/namespaces/inkscape"
   xmlns:sodipodi="http://sodipodi.sourceforge.net/DTD/sodipodi-0.dtd"
   xmlns="http://www.w3.org/2000/svg"
   xmlns:svg="http://www.w3.org/2000/svg"><defs
   id="defs13" /><sodipodi:namedview
   id="namedview11"
   pagecolor="#505050"
   bordercolor="#eeeeee"
   borderopacity="1"
   inkscape:pageshadow="0"
   inkscape:pageopacity="0"
   inkscape:pagecheckerboard="0"
   showgrid="false"
   inkscape:zoom="8"
   inkscape:cx="29.75"
   inkscape:cy="26.1875"
   inkscape:window-width="1920"
   inkscape:window-height="1057"
   inkscape:window-x="-8"
   inkscape:window-y="-8"
   inkscape:window-maximized="1"
   inkscape:current-layer="Layer_1" />
<style
   type="text/css"
   id="style2">
	.st0{fill:#C4302B;}
	.st1{fill:#FFFFFF;}
</style>

<rect
   style="fill:#64a442;fill-opacity:1;stroke-width:21.7151"
   id="rect9339"
   width="72"
   height="72"
   x="-72"
   y="0"
   transform="scale(-1,1)" /><g
   id="Guides">
</g>

<g
   id="g395"
   transform="translate(72)"><path
     style="fill:#90c361;stroke-width:0.009"
     d="m -27,9 h -4.5 V 6.75 4.5 h 4.5 4.5 V 6.75 9 Z"
     id="path431" /><path
     style="fill:#8fc260;stroke-width:0.009"
     d="M -69.75,13.5 H -72 V 11.25 9 h 2.25 2.25 v 2.25 2.25 z m 9,0 H -63 V 11.25 9 h 2.25 2.25 v 2.25 2.25 z m 38.25,0 H -27 V 11.25 9 h 4.5 4.5 v 2.25 2.25 z"
     id="path429" /><path
     style="fill:#b9855d;stroke-width:0.009"
     d="M -58.5,72 H -63 V 69.75 67.5 h 2.25 2.25 V 65.25 63 h 2.25 2.25 v 4.5 4.5 z m 15.75,0 H -45 V 69.75 67.5 h 2.25 2.25 V 69.75 72 Z m 13.5,0 H -31.5 V 69.75 67.5 h 2.25 2.25 V 69.75 72 Z m 18,0 H -13.5 V 69.75 67.5 H -11.25 -9 V 69.75 72 Z m -13.5,-9 H -27 V 60.75 58.5 h 2.25 2.25 V 60.75 63 Z m 13.5,0 H -13.5 V 60.75 58.5 H -11.25 -9 V 56.25 54 H -4.5 0 v 2.25 2.25 H -4.5 -9 V 60.75 63 Z m -31.5,-4.5 H -45 V 56.25 54 h -2.25 -2.25 V 51.75 49.5 H -54 -58.5 V 47.25 45 h 4.5 4.5 v 2.25 2.25 h 2.25 2.25 V 47.25 45 h 2.25 2.25 v 2.25 2.25 H -42.75 -45 V 51.75 54 h 2.25 2.25 v 2.25 2.25 z m 15.75,-9 h -4.5 V 47.25 45 h 4.5 4.5 v 2.25 2.25 z M -13.5,45 H -18 V 42.75 40.5 h 4.5 4.5 V 42.75 45 Z M -69.75,36 H -72 V 31.5 27 h 2.25 2.25 v 4.5 4.5 z m 11.25,0 H -63 V 33.75 31.5 h 4.5 4.5 V 33.75 36 Z M -36,31.5 h -4.5 V 29.25 27 h 4.5 4.5 v 2.25 2.25 z m 13.5,0 H -27 V 29.25 27 h 4.5 4.5 v 2.25 2.25 z M -2.25,27 H -4.5 V 24.75 22.5 H -2.25 0 V 24.75 27 Z m -54,-4.5 H -58.5 V 20.25 18 h 2.25 2.25 v 2.25 2.25 z"
     id="path427" /><path
     style="fill:#878888;stroke-width:0.009"
     d="M -6.75,49.5 H -9 V 47.25 45 h 2.25 2.25 v 2.25 2.25 z m -45,-18 H -54 V 29.25 27 h 2.25 2.25 v 2.25 2.25 z"
     id="path425" /><path
     style="fill:#85b957;stroke-width:0.009"
     d="M -60.75,9 H -63 V 6.75 4.5 h 2.25 2.25 V 6.75 9 Z"
     id="path423" /><path
     style="fill:#7eba53;stroke-width:0.009"
     d="M -29.25,13.5 H -31.5 V 11.25 9 h 2.25 2.25 v 2.25 2.25 z M -51.75,9 H -54 V 6.75 4.5 h 2.25 2.25 V 6.75 9 Z m 18,-4.5 H -36 V 2.25 0 h 2.25 2.25 V 2.25 4.5 Z"
     id="path421" /><path
     style="fill:#75b24a;stroke-width:0.009"
     d="M -33.75,13.5 H -36 V 11.25 9 h 2.25 2.25 v 2.25 2.25 z M -69.75,9 H -72 V 4.5 0 h 6.75 6.75 V 2.25 4.5 h 2.25 2.25 V 6.75 9 h -2.25 -2.25 V 6.75 4.5 H -63 -67.5 V 6.75 9 Z m 49.5,0 H -22.5 V 6.75 4.5 h 2.25 2.25 V 6.75 9 Z m -9,-4.5 H -31.5 V 2.25 0 h 2.25 2.25 V 2.25 4.5 Z"
     id="path419" /><path
     style="fill:#70af47;stroke-width:0.009"
     d="M -51.75,18 H -54 V 15.75 13.5 h 2.25 2.25 V 15.75 18 Z m 9,-4.5 H -45 V 11.25 9 h 2.25 2.25 v 2.25 2.25 z m -4.5,-9 H -49.5 V 2.25 0 h 2.25 2.25 V 2.25 4.5 Z"
     id="path417" /><path
     style="fill:#6aa943;stroke-width:0.009"
     d="M -24.75,18 H -27 V 15.75 13.5 h 2.25 2.25 V 15.75 18 Z m -27,-4.5 H -54 V 11.25 9 h 2.25 2.25 v 2.25 2.25 z M -65.25,9 H -67.5 V 6.75 4.5 h 2.25 2.25 V 6.75 9 Z m 22.5,0 H -45 V 6.75 4.5 h 2.25 2.25 V 2.25 0 h 2.25 2.25 V 2.25 4.5 h -2.25 -2.25 V 6.75 9 Z m 36,0 H -13.5 V 6.75 4.5 H -20.25 -27 V 2.25 0 h 6.75 6.75 V 2.25 4.5 H -9 -4.5 V 2.25 0 H -2.25 0 V 4.5 9 Z"
     id="path415" /><path
     style="fill:#64a442;stroke-width:0.009"
     d="M -56.25,13.5 H -58.5 V 11.25 9 h 2.25 2.25 v 2.25 2.25 z m 18,-4.5 H -40.5 V 6.75 4.5 h 2.25 2.25 V 6.75 9 Z m 22.5,0 H -18 V 6.75 4.5 h 2.25 2.25 V 2.25 0 H -11.25 -9 V 2.25 4.5 h -2.25 -2.25 V 6.75 9 Z M -54,4.5 h -4.5 V 2.25 0 h 4.5 4.5 V 2.25 4.5 Z"
     id="path413" /><path
     style="fill:#956b49;stroke-width:0.009"
     d="M -69.75,67.5 H -72 V 65.25 63 h 2.25 2.25 V 60.75 58.5 h 2.25 2.25 V 56.25 54 h 2.25 2.25 V 51.75 49.5 h 4.5 4.5 V 51.75 54 h 2.25 2.25 v 2.25 2.25 h 4.5 4.5 V 60.75 63 H -40.5 -45 V 60.75 58.5 H -49.5 -54 V 56.25 54 h -2.25 -2.25 v 2.25 2.25 H -60.75 -63 V 60.75 63 h -2.25 -2.25 v 2.25 2.25 z m 65.25,0 H -9 V 63 58.5 H -4.5 0 V 63 67.5 Z M -69.75,54 H -72 v -9 -9 h 2.25 2.25 v 2.25 2.25 h 2.25 2.25 v 4.5 4.5 h -2.25 -2.25 V 51.75 54 Z m 31.5,0 H -40.5 V 49.5 45 h 2.25 2.25 V 49.5 54 Z M -27,54 h -4.5 V 51.75 49.5 h 4.5 4.5 V 51.75 54 Z m 15.75,0 H -13.5 V 51.75 49.5 H -15.75 -18 V 47.25 45 h 4.5 4.5 v 4.5 4.5 z m 9,-9 H -4.5 V 42.75 40.5 H -2.25 0 V 42.75 45 Z m -54,-4.5 H -58.5 V 38.25 36 h 2.25 2.25 V 33.75 31.5 h 4.5 4.5 v 4.5 4.5 h -2.25 -2.25 V 38.25 36 H -51.75 -54 v 2.25 2.25 z m 29.25,0 h -4.5 V 38.25 36 H -33.75 -36 V 33.75 31.5 h 2.25 2.25 V 33.75 36 h 2.25 2.25 V 33.75 31.5 h 4.5 4.5 V 33.75 36 h -2.25 -2.25 v 2.25 2.25 z M -4.5,36 H -9 V 33.75 31.5 h -2.25 -2.25 V 29.25 27 h 2.25 2.25 v 2.25 2.25 h 2.25 2.25 V 29.25 27 H -2.25 0 v 4.5 4.5 z m -54,-9 H -63 V 22.5 18 h 2.25 2.25 v 2.25 2.25 h 2.25 2.25 V 24.75 27 Z m 11.25,0 H -49.5 V 22.5 18 h 2.25 2.25 v 4.5 4.5 z m -22.5,-4.5 H -72 V 20.25 18 h 2.25 2.25 v 2.25 2.25 z m 58.5,0 H -13.5 V 20.25 18 h 2.25 2.25 v 2.25 2.25 z"
     id="path411" /><path
     style="fill:#6b6b6b;stroke-width:0.009"
     d="M -33.75,54 H -36 V 51.75 49.5 h 2.25 2.25 V 51.75 54 Z m 13.5,-31.5 H -22.5 V 20.25 18 h 2.25 2.25 v 2.25 2.25 z m -45,-4.5 H -67.5 V 15.75 13.5 h 2.25 2.25 V 15.75 18 Z"
     id="path409" /><path
     style="fill:#5fa042;stroke-width:0.009"
     d="M -33.75,18 H -36 V 15.75 13.5 h 2.25 2.25 V 15.75 18 Z m 27,-4.5 H -9 V 11.25 9 h 2.25 2.25 v 2.25 2.25 z M -33.75,9 H -36 V 6.75 4.5 h 2.25 2.25 V 6.75 9 Z m -9,-4.5 H -45 V 2.25 0 h 2.25 2.25 V 2.25 4.5 Z"
     id="path407" /><path
     style="fill:#5e9d41;stroke-width:0.009"
     d="M -11.25,13.5 H -13.5 V 11.25 9 h 2.25 2.25 v 2.25 2.25 z"
     id="path405" /><path
     style="fill:#5e963f;stroke-width:0.009"
     d="M -6.75,4.5 H -9 V 2.25 0 h 2.25 2.25 V 2.25 4.5 Z"
     id="path403" /><path
     style="fill:#78563a;stroke-width:0.009"
     d="M -69.75,72 H -72 V 69.75 67.5 h 2.25 2.25 V 65.25 63 H -69.75 -72 V 58.5 54 h 2.25 2.25 V 51.75 49.5 h 2.25 2.25 V 47.25 45 h 2.25 2.25 V 42.75 40.5 H -63 -67.5 V 36 31.5 h 2.25 2.25 V 29.25 27 h 4.5 4.5 V 24.75 22.5 h 2.25 2.25 V 24.75 27 h 4.5 4.5 v 2.25 2.25 h 2.25 2.25 V 33.75 36 h 2.25 2.25 v 2.25 2.25 h 4.5 4.5 V 38.25 36 h 2.25 2.25 V 24.75 13.5 h 2.25 2.25 V 18 22.5 H -9 -4.5 V 18 13.5 H -2.25 0 V 18 22.5 H -2.25 -4.5 V 27 31.5 H -6.75 -9 v 4.5 4.5 h 2.25 2.25 V 38.25 36 H -2.25 0 v 2.25 2.25 H -2.25 -4.5 V 42.75 45 H -2.25 0 v 2.25 2.25 H -2.25 -4.5 V 51.75 54 H -6.75 -9 v 2.25 2.25 h -2.25 -2.25 V 60.75 63 h 2.25 2.25 v 2.25 2.25 h 2.25 2.25 V 69.75 72 H -6.75 -9 V 69.75 67.5 h -2.25 -2.25 V 69.75 72 H -15.75 -18 V 69.75 67.5 h -2.25 -2.25 V 69.75 72 H -24.75 -27 V 69.75 67.5 h -2.25 -2.25 V 69.75 72 H -33.75 -36 V 65.25 58.5 h -2.25 -2.25 V 56.25 54 H -42.75 -45 V 51.75 49.5 h -2.25 -2.25 V 47.25 45 h -4.5 -4.5 v 4.5 4.5 h 2.25 2.25 v 4.5 4.5 h 2.25 2.25 V 60.75 58.5 h 2.25 2.25 V 60.75 63 h 2.25 2.25 v 2.25 2.25 H -42.75 -45 V 69.75 72 H -49.5 -54 V 67.5 63 h -4.5 -4.5 v 2.25 2.25 h -2.25 -2.25 V 69.75 72 Z m 22.5,-4.5 H -45 V 65.25 63 h -2.25 -2.25 v 2.25 2.25 z m -18,-4.5 H -63 V 60.75 58.5 h 2.25 2.25 V 56.25 54 h -4.5 -4.5 v 4.5 4.5 z m 40.5,0 H -18 V 60.75 58.5 h -6.75 -6.75 V 60.75 63 Z m -6.75,-9 h 9 V 49.5 45 h -9 -9 V 42.75 40.5 h 2.25 2.25 V 38.25 36 h -2.25 -2.25 v 2.25 2.25 H -42.75 -45 V 36 31.5 h -2.25 -2.25 V 29.25 27 H -51.75 -54 v 2.25 2.25 H -58.5 -63 V 33.75 36 h 2.25 2.25 v 2.25 2.25 h 2.25 2.25 V 38.25 36 h 2.25 2.25 v 4.5 4.5 h 2.25 2.25 v 2.25 2.25 h 2.25 2.25 V 51.75 54 Z m 18,0 H -9 V 51.75 49.5 h 2.25 2.25 V 47.25 45 H -6.75 -9 V 42.75 40.5 H -13.5 -18 V 47.25 54 Z m 2.25,-22.5 H -9 V 29.25 27 h -2.25 -2.25 v 2.25 2.25 z m -18,0 H -31.5 V 27 22.5 h 4.5 4.5 V 24.75 27 H -24.75 -27 v 2.25 2.25 z M -69.75,27 H -72 V 24.75 22.5 h 2.25 2.25 V 20.25 18 h 2.25 2.25 v 2.25 2.25 h -2.25 -2.25 V 24.75 27 Z M -40.5,22.5 H -45 V 20.25 18 h 4.5 4.5 v 2.25 2.25 z"
     id="path401" /><path
     style="fill:#583c28;stroke-width:0.009"
     d="M -60.75,67.5 H -63 V 65.25 63 h 2.25 2.25 v 2.25 2.25 z m 13.5,0 H -49.5 V 65.25 63 h 2.25 2.25 v 2.25 2.25 z m 40.5,-27 H -9 V 38.25 36 h 2.25 2.25 v 2.25 2.25 z m -58.5,-9 H -67.5 V 29.25 27 h 2.25 2.25 v 2.25 2.25 z M -33.75,27 H -36 V 22.5 18 H -40.5 -45 V 15.75 13.5 h 4.5 4.5 V 15.75 18 h 6.75 6.75 v 2.25 2.25 H -27 -31.5 V 24.75 27 Z m 27,-4.5 H -9 V 20.25 18 h 2.25 2.25 v 2.25 2.25 z M -47.25,9 H -49.5 V 6.75 4.5 h 2.25 2.25 V 6.75 9 Z"
     id="path399" /><path
     style="fill:#583c27;stroke-width:0.009"
     d="M -65.25,72 H -67.5 V 69.75 67.5 h 2.25 2.25 V 69.75 72 Z m 27,0 H -40.5 V 67.5 63 h 2.25 2.25 v 4.5 4.5 z m 18,0 H -22.5 V 69.75 67.5 h 2.25 2.25 V 69.75 72 Z m 18,0 H -4.5 V 69.75 67.5 H -2.25 0 V 69.75 72 Z m -49.5,-9 H -54 V 60.75 58.5 h 2.25 2.25 V 60.75 63 Z m 22.5,0 H -31.5 V 60.75 58.5 h 2.25 2.25 V 60.75 63 Z m 9,0 H -22.5 V 60.75 58.5 h 2.25 2.25 V 60.75 63 Z m -45,-4.5 H -67.5 V 56.25 54 h 2.25 2.25 v 2.25 2.25 z M -15.75,54 H -18 V 51.75 49.5 h 2.25 2.25 V 51.75 54 Z m 13.5,0 H -4.5 V 51.75 49.5 H -2.25 0 V 51.75 54 Z m -31.5,-4.5 H -36 V 47.25 45 h 2.25 2.25 v 2.25 2.25 z m -27,-4.5 H -63 V 42.75 40.5 h 2.25 2.25 V 42.75 45 Z M -45,45 h -4.5 V 42.75 40.5 h 4.5 4.5 V 38.25 36 h 2.25 2.25 v 2.25 2.25 h -2.25 -2.25 V 42.75 45 Z m 15.75,-9 H -31.5 V 33.75 31.5 h 2.25 2.25 V 33.75 36 Z m -36,-9 H -67.5 V 24.75 22.5 h 2.25 2.25 V 24.75 27 Z m 24.75,0 H -45 V 24.75 22.5 h 4.5 4.5 V 24.75 27 Z m 20.25,0 H -22.5 V 24.75 22.5 h 2.25 2.25 V 24.75 27 Z m -31.5,-4.5 H -54 V 20.25 18 H -58.5 -63 V 15.75 13.5 h -2.25 -2.25 V 15.75 18 H -69.75 -72 V 15.75 13.5 h 2.25 2.25 V 11.25 9 h 2.25 2.25 v 2.25 2.25 h 4.5 4.5 V 15.75 18 h 2.25 2.25 V 13.5 9 h 2.25 2.25 v 4.5 4.5 h -2.25 -2.25 v 2.25 2.25 z M -29.25,18 H -31.5 V 15.75 13.5 h 2.25 2.25 V 15.75 18 Z m 9,0 H -22.5 V 15.75 13.5 h 2.25 2.25 V 11.25 9 h 2.25 2.25 v 2.25 2.25 H -9 -4.5 V 11.25 9 H -2.25 0 v 2.25 2.25 H -2.25 -4.5 V 15.75 18 H -9 -13.5 V 15.75 13.5 H -15.75 -18 V 15.75 18 Z m -18,-4.5 H -40.5 V 11.25 9 h 2.25 2.25 v 2.25 2.25 z"
     id="path397" /></g></svg>
