<?xml version="1.0" encoding="UTF-8" standalone="no"?>
<!-- Generator: Adobe Illustrator 23.0.3, SVG Export Plug-In . SVG Version: 6.00 Build 0)  -->

<svg
   version="1.1"
   id="Layer_1"
   x="0px"
   y="0px"
   viewBox="0 0 72 72"
   style="enable-background:new 0 0 72 72;"
   xml:space="preserve"
   sodipodi:docname="Music.svg"
   inkscape:version="1.1 (c68e22c387, 2021-05-23)"
   xmlns:inkscape="http://www.inkscape.org/namespaces/inkscape"
   xmlns:sodipodi="http://sodipodi.sourceforge.net/DTD/sodipodi-0.dtd"
   xmlns:xlink="http://www.w3.org/1999/xlink"
   xmlns="http://www.w3.org/2000/svg"
   xmlns:svg="http://www.w3.org/2000/svg"><defs
   id="defs13"><radialGradient
     r="18.5"
     fy="35.375"
     fx="23.25"
     cy="35.375"
     cx="23.25"
     gradientTransform="matrix(1,0,0,0.398649,0,21.2728)"
     gradientUnits="userSpaceOnUse"
     id="radialGradient2838-902-337-741-596-696-730-201-106-486"
     xlink:href="#linearGradient2072-708-337-887-933-607-276-425-582-661"
     inkscape:collect="always" /><linearGradient
     id="linearGradient2072-708-337-887-933-607-276-425-582-661"
     inkscape:collect="always"><stop
       id="stop7382"
       offset="0"
       style="stop-color:#000000;stop-opacity:1;" /><stop
       id="stop7384"
       offset="1"
       style="stop-color:#000000;stop-opacity:0;" /></linearGradient><radialGradient
     r="6.375"
     fy="32.307854"
     fx="4.3920336"
     cy="32.307854"
     cx="4.3920336"
     gradientTransform="matrix(1,0,0,0.509804,0,16.05392)"
     gradientUnits="userSpaceOnUse"
     id="radialGradient2840-148-565-578-83-380-665-632-763-450"
     xlink:href="#linearGradient2315-688-56-197-8-948-503-689-688-19"
     inkscape:collect="always" /><linearGradient
     id="linearGradient2315-688-56-197-8-948-503-689-688-19"
     inkscape:collect="always"><stop
       id="stop7388"
       offset="0"
       style="stop-color:#7a7a7a;stop-opacity:1;" /><stop
       id="stop7390"
       offset="1"
       style="stop-color:#7a7a7a;stop-opacity:0;" /></linearGradient><radialGradient
     r="6.375"
     fy="32.307854"
     fx="4.3920336"
     cy="32.307854"
     cx="4.3920336"
     gradientTransform="matrix(1,0,0,0.509804,0,16.05392)"
     gradientUnits="userSpaceOnUse"
     id="radialGradient2842-682-290-105-167-847-672-480-43-847"
     xlink:href="#linearGradient2315-688-56-197-8-948-503-689-688-19"
     inkscape:collect="always" /><radialGradient
     inkscape:collect="always"
     xlink:href="#linearGradient3435"
     id="radialGradient3447"
     gradientUnits="userSpaceOnUse"
     cx="133.84108"
     cy="23.914305"
     fx="133.84108"
     fy="23.914305"
     r="21.333334"
     gradientTransform="matrix(-0.07523912,0.02068459,-0.19142811,-0.69631303,51.706569,56.853206)" /><linearGradient
     y2="14.2033"
     x2="35.391201"
     y1="32.4165"
     x1="12.2744"
     gradientUnits="userSpaceOnUse"
     id="linearGradient3435"><stop
       id="stop3437"
       style="stop-color:#ffffc8;stop-opacity:1.0000000;"
       offset="0.0000000" /><stop
       id="stop3439"
       style="stop-color:#9a91ef;stop-opacity:0.0000000;"
       offset="1.0000000" /></linearGradient><radialGradient
     inkscape:collect="always"
     xlink:href="#linearGradient3435"
     id="radialGradient3443"
     gradientUnits="userSpaceOnUse"
     gradientTransform="matrix(0.15785814,-0.02853,0.15617845,0.86414946,24.468394,8.6734138)"
     cx="35.511295"
     cy="21.618015"
     fx="35.511295"
     fy="21.618015"
     r="21.333334" /><radialGradient
     inkscape:collect="always"
     xlink:href="#linearGradient3435"
     id="radialGradient3433"
     gradientUnits="userSpaceOnUse"
     gradientTransform="matrix(0.00772668,-0.18311163,0.81159913,0.03424697,0.35403301,37.277939)"
     cx="16.885271"
     cy="33.377594"
     fx="16.885271"
     fy="33.377594"
     r="21.333334" /><radialGradient
     inkscape:collect="always"
     xlink:href="#linearGradient3421"
     id="radialGradient3429"
     gradientUnits="userSpaceOnUse"
     gradientTransform="matrix(0.23615527,-0.23695711,0.6452084,0.64302346,-5.1319814,20.426646)"
     cx="53.556889"
     cy="48.23827"
     fx="53.556889"
     fy="48.23827"
     r="21.333334" /><linearGradient
     id="linearGradient3421"
     gradientUnits="userSpaceOnUse"
     x1="12.2744"
     y1="32.4165"
     x2="35.391201"
     y2="14.2033"><stop
       offset="0.0000000"
       style="stop-color:#ffffff;stop-opacity:1.0000000;"
       id="stop3423" /><stop
       offset="1.0000000"
       style="stop-color:#b8c04c;stop-opacity:0.0000000;"
       id="stop3427" /></linearGradient><radialGradient
     inkscape:collect="always"
     xlink:href="#linearGradient3406"
     id="radialGradient3449"
     gradientUnits="userSpaceOnUse"
     gradientTransform="matrix(1.1468711,-1.8518329,0.99902102,0.6187298,-33.531609,59.720619)"
     cx="26.137741"
     cy="38.807304"
     fx="26.137741"
     fy="38.807304"
     r="21.333334" /><linearGradient
     y2="14.2033"
     x2="35.391201"
     y1="32.4165"
     x1="12.2744"
     gradientUnits="userSpaceOnUse"
     id="linearGradient3406"><stop
       id="stop3408"
       style="stop-color:#b307ff;stop-opacity:0.82178217;"
       offset="0.0000000" /><stop
       id="stop3410"
       style="stop-color:#f0ff8b;stop-opacity:0.64356434;"
       offset="1.0000000" /><stop
       id="stop3412"
       style="stop-color:#ffffff;stop-opacity:0.0000000;"
       offset="1.0000000" /></linearGradient><radialGradient
     inkscape:collect="always"
     xlink:href="#linearGradient3394"
     id="radialGradient3392"
     cx="37.751469"
     cy="27.569166"
     fx="37.751469"
     fy="27.569166"
     r="21.333334"
     gradientUnits="userSpaceOnUse"
     gradientTransform="matrix(1.2648861,1.4278414,-1.165677,1.0326059,26.785294,-32.522882)" /><linearGradient
     id="linearGradient3394"
     gradientUnits="userSpaceOnUse"
     x1="12.2744"
     y1="32.4165"
     x2="35.391201"
     y2="14.2033"><stop
       offset="0.0000000"
       style="stop-color:#fff307;stop-opacity:1.0000000;"
       id="stop3396" /><stop
       offset="0.50000000"
       style="stop-color:#166eff;stop-opacity:1.0000000;"
       id="stop3398" /><stop
       offset="1.0000000"
       style="stop-color:#ffffff;stop-opacity:0.0000000;"
       id="stop3400" /></linearGradient><linearGradient
     gradientUnits="userSpaceOnUse"
     y2="18.366575"
     x2="17.742729"
     y1="31.494707"
     x1="28.702885"
     id="linearGradient6034"
     xlink:href="#linearGradient6028"
     inkscape:collect="always"
     gradientTransform="matrix(1.4904088,0,0,1.4904088,-0.9409027,-1.7993445)" /><linearGradient
     id="linearGradient6028"
     inkscape:collect="always"><stop
       id="stop6030"
       offset="0"
       style="stop-color:#ffffff;stop-opacity:1;" /><stop
       id="stop6032"
       offset="1"
       style="stop-color:#ffffff;stop-opacity:0;" /></linearGradient><linearGradient
     gradientUnits="userSpaceOnUse"
     y2="54.698483"
     x2="48.798885"
     y1="3.6100161"
     x1="10.50172"
     id="linearGradient6042"
     xlink:href="#linearGradient6028"
     inkscape:collect="always"
     gradientTransform="matrix(1.4904088,0,0,1.4904088,-1.072637,-1.9310803)" /><linearGradient
     gradientTransform="matrix(1.863011,0,0,1.863011,-9.4979107,-5.8123507)"
     gradientUnits="userSpaceOnUse"
     y2="28"
     x2="29"
     y1="14.625"
     x1="21.125"
     id="linearGradient4222"
     xlink:href="#linearGradient4236"
     inkscape:collect="always" /><linearGradient
     id="linearGradient4236"><stop
       id="stop4238"
       offset="0.0000000"
       style="stop-color:#ffffff;stop-opacity:0.32673267;" /><stop
       id="stop4240"
       offset="1.0000000"
       style="stop-color:#ffffff;stop-opacity:0.60396039;" /></linearGradient><linearGradient
     y2="14.2033"
     x2="35.391201"
     y1="32.4165"
     x1="12.2744"
     gradientTransform="matrix(1.7742959,0,0,1.7742959,-7.3682668,-5.6571038)"
     gradientUnits="userSpaceOnUse"
     id="linearGradient4242"
     xlink:href="#aigrd2"
     inkscape:collect="always" /><linearGradient
     y2="14.2033"
     x2="35.391201"
     y1="32.4165"
     x1="12.2744"
     gradientUnits="userSpaceOnUse"
     id="aigrd2"><stop
       id="stop3043"
       style="stop-color:#FBFBFB"
       offset="0" /><stop
       id="stop3045"
       style="stop-color:#B6B6B6"
       offset="0.5" /><stop
       id="stop3047"
       style="stop-color:#E4E4E4"
       offset="1" /></linearGradient><linearGradient
     gradientTransform="matrix(1.7742959,0,0,1.7742959,-7.3687557,-5.6571023)"
     y2="34.307499"
     x2="32.511002"
     y1="11.1885"
     x1="14.9966"
     gradientUnits="userSpaceOnUse"
     id="linearGradient3912"
     xlink:href="#aigrd1"
     inkscape:collect="always" /><linearGradient
     y2="34.307499"
     x2="32.511002"
     y1="11.1885"
     x1="14.9966"
     gradientUnits="userSpaceOnUse"
     id="aigrd1"><stop
       id="stop3034"
       style="stop-color:#EBEBEB"
       offset="0" /><stop
       id="stop3036"
       style="stop-color:#FFFFFF"
       offset="0.5" /><stop
       id="stop3038"
       style="stop-color:#EBEBEB"
       offset="1" /></linearGradient><linearGradient
     inkscape:collect="always"
     xlink:href="#linearGradient4236"
     id="linearGradient200"
     gradientUnits="userSpaceOnUse"
     gradientTransform="matrix(1.863011,0,0,1.863011,-9.4979107,-5.8123507)"
     x1="21.125"
     y1="14.625"
     x2="29"
     y2="28" /></defs><sodipodi:namedview
   id="namedview11"
   pagecolor="#505050"
   bordercolor="#eeeeee"
   borderopacity="1"
   inkscape:pageshadow="0"
   inkscape:pageopacity="0"
   inkscape:pagecheckerboard="0"
   showgrid="false"
   inkscape:zoom="1"
   inkscape:cx="-432"
   inkscape:cy="-137.5"
   inkscape:window-width="1920"
   inkscape:window-height="1057"
   inkscape:window-x="-8"
   inkscape:window-y="-8"
   inkscape:window-maximized="1"
   inkscape:current-layer="Layer_1" />
<style
   type="text/css"
   id="style2">
	.st0{fill:#C4302B;}
	.st1{fill:#FFFFFF;}
</style>

<rect
   style="fill:#00002b;stroke-width:70.5142"
   id="rect528"
   width="72"
   height="72"
   x="0"
   y="0" /><g
   id="Guides">
</g>

<g
   style="fill-rule:nonzero;stroke:#000000;stroke-miterlimit:4"
   id="Layer_x0020_2"
   transform="matrix(1.7742959,0,0,1.7742959,-7.3687554,-5.657102)"><g
     id="g3002"
     style="stroke:none"><g
       id="g3004"><path
         id="path3006"
         d="m 24,31 c -11.6,0 -21,2.6 -21,5.9 0,3.3 9.4,5.9 21,5.9 11.6,0 21,-2.6 21,-5.9 C 45,33.6 35.6,31 24,31 Z m 0,7.3 c -2.8,0 -5,-0.6 -5,-1.4 0,-0.8 2.3,-1.4 5,-1.4 2.8,0 5,0.6 5,1.4 0,0.8 -2.3,1.4 -5,1.4 z"
         style="opacity:0" /><path
         id="path3008"
         d="m 24,31.2 c -11.2,0 -20.2,2.5 -20.2,5.7 0,3.2 9.1,5.7 20.2,5.7 11.2,0 20.2,-2.5 20.2,-5.7 0,-3.2 -9.1,-5.7 -20.2,-5.7 z m 0,7 c -2.7,0 -4.9,-0.6 -4.9,-1.4 0,-0.8 2.2,-1.4 4.9,-1.4 2.7,0 4.9,0.6 4.9,1.4 0,0.8 -2.2,1.4 -4.9,1.4 z"
         style="opacity:0.00636363" /><path
         id="path3010"
         d="m 24,31.4 c -10.8,0 -19.5,2.4 -19.5,5.5 0,3 8.7,5.5 19.5,5.5 10.8,0 19.5,-2.4 19.5,-5.5 0,-3 -8.7,-5.5 -19.5,-5.5 z m 0,6.8 c -2.6,0 -4.7,-0.6 -4.7,-1.3 0,-0.7 2.1,-1.3 4.7,-1.3 2.6,0 4.7,0.6 4.7,1.3 0,0.7 -2.1,1.3 -4.7,1.3 z"
         style="opacity:0.0127273" /><path
         id="path3012"
         d="m 24,31.6 c -10.3,0 -18.7,2.3 -18.7,5.2 0,2.9 8.4,5.2 18.7,5.2 10.3,0 18.7,-2.3 18.7,-5.2 0,-2.9 -8.4,-5.2 -18.7,-5.2 z m 0,6.5 c -2.5,0 -4.5,-0.6 -4.5,-1.3 0,-0.7 2,-1.3 4.5,-1.3 2.5,0 4.5,0.6 4.5,1.3 0,0.7 -2,1.3 -4.5,1.3 z"
         style="opacity:0.0190909" /><path
         id="path3014"
         d="m 24,31.9 c -9.9,0 -17.9,2.2 -17.9,5 0,2.8 8,5 17.9,5 9.9,0 17.9,-2.2 17.9,-5 0,-2.8 -8,-5 -17.9,-5 z m 0,6.2 c -2.4,0 -4.3,-0.5 -4.3,-1.2 0,-0.7 1.9,-1.2 4.3,-1.2 2.4,0 4.3,0.5 4.3,1.2 0,0.7 -1.9,1.2 -4.3,1.2 z"
         style="opacity:0.0254545" /><path
         id="path3016"
         d="m 24,32.1 c -9.5,0 -17.1,2.2 -17.1,4.8 0,2.6 7.7,4.8 17.1,4.8 9.5,0 17.1,-2.1 17.1,-4.8 0,-2.7 -7.7,-4.8 -17.1,-4.8 z m 0,5.9 c -2.3,0 -4.1,-0.5 -4.1,-1.2 0,-0.6 1.8,-1.2 4.1,-1.2 2.3,0 4.1,0.5 4.1,1.2 0,0.6 -1.8,1.2 -4.1,1.2 z"
         style="opacity:0.0318182" /><path
         id="path3018"
         d="m 24,32.3 c -9,0 -16.4,2.1 -16.4,4.6 0,2.5 7.3,4.6 16.4,4.6 9,0 16.4,-2.1 16.4,-4.6 0,-2.5 -7.3,-4.6 -16.4,-4.6 z m 0,5.7 c -2.2,0 -3.9,-0.5 -3.9,-1.1 0,-0.6 1.8,-1.1 3.9,-1.1 2.1,0 3.9,0.5 3.9,1.1 0,0.6 -1.8,1.1 -3.9,1.1 z"
         style="opacity:0.0381818" /><path
         id="path3020"
         d="m 24,32.5 c -8.6,0 -15.6,2 -15.6,4.4 0,2.4 7,4.4 15.6,4.4 8.6,0 15.6,-2 15.6,-4.4 0,-2.4 -7,-4.4 -15.6,-4.4 z m 0,5.4 c -2.1,0 -3.7,-0.5 -3.7,-1 0,-0.6 1.7,-1 3.7,-1 2,0 3.7,0.5 3.7,1 0,0.6 -1.7,1 -3.7,1 z"
         style="opacity:0.0445454" /><path
         id="path3022"
         d="m 24,32.7 c -8.2,0 -14.8,1.9 -14.8,4.2 0,2.3 6.6,4.2 14.8,4.2 8.2,0 14.8,-1.9 14.8,-4.2 0,-2.3 -6.6,-4.2 -14.8,-4.2 z m 0,5.2 c -2,0 -3.6,-0.4 -3.6,-1 0,-0.5 1.6,-1 3.6,-1 2,0 3.6,0.4 3.6,1 0,0.5 -1.6,1 -3.6,1 z"
         style="opacity:0.0509091" /><path
         id="path3024"
         d="m 24,32.9 c -7.8,0 -14.1,1.8 -14.1,3.9 0,2.1 6.3,3.9 14.1,3.9 7.8,0 14.1,-1.8 14.1,-3.9 0,-2.1 -6.3,-3.9 -14.1,-3.9 z m 0,4.9 c -1.9,0 -3.4,-0.4 -3.4,-0.9 0,-0.5 1.5,-0.9 3.4,-0.9 1.9,0 3.4,0.4 3.4,0.9 0,0.5 -1.5,0.9 -3.4,0.9 z"
         style="opacity:0.0572727" /><path
         id="path3026"
         d="m 24,33.1 c -7.3,0 -13.3,1.7 -13.3,3.7 0,2.1 5.9,3.7 13.3,3.7 7.3,0 13.3,-1.7 13.3,-3.7 0,-2.1 -5.9,-3.7 -13.3,-3.7 z m 0,4.7 c -1.8,0 -3.2,-0.4 -3.2,-0.9 0,-0.5 1.4,-0.9 3.2,-0.9 1.8,0 3.2,0.4 3.2,0.9 0,0.5 -1.4,0.9 -3.2,0.9 z"
         style="opacity:0.0636363" /><path
         id="path3028"
         d="m 24,33.4 c -6.9,0 -12.5,1.6 -12.5,3.5 0,1.9 5.6,3.5 12.5,3.5 6.9,0 12.5,-1.6 12.5,-3.5 C 36.5,35 31,33.4 24,33.4 Z m 0,4.3 c -1.7,0 -3,-0.4 -3,-0.8 0,-0.5 1.3,-0.8 3,-0.8 1.7,0 3,0.4 3,0.8 0,0.5 -1.3,0.8 -3,0.8 z"
         style="opacity:0.07" /></g></g></g><path
   style="fill:url(#linearGradient3912);fill-rule:nonzero;stroke:none;stroke-width:1.49041;stroke-miterlimit:4"
   d="m 35.214354,4.2789569 c -17.210674,0 -31.0501833,13.8395091 -31.0501833,31.0501821 0,17.210674 13.8395093,31.050185 31.0501833,31.050185 17.210674,0 31.050185,-13.839511 31.050185,-31.050185 0,-17.210673 -13.839511,-31.0501821 -31.050185,-31.0501821 z m 0,38.5022271 c -4.080881,0 -7.452044,-3.371163 -7.452044,-7.452045 0,-4.080881 3.371163,-7.452044 7.452044,-7.452044 4.080881,0 7.452044,3.371163 7.452044,7.452044 0,4.080882 -3.371163,7.452045 -7.452044,7.452045 z"
   id="path3040" /><path
   style="fill:url(#linearGradient4242);fill-rule:nonzero;stroke:#808080;stroke-width:1.49041;stroke-miterlimit:4;stroke-opacity:1"
   d="m 35.214843,4.2789554 c -17.210674,0 -31.0501835,13.8395106 -31.0501835,31.0501836 0,17.210674 13.8395095,31.050185 31.0501835,31.050185 17.210674,0 31.050185,-13.839511 31.050185,-31.050185 0,-17.210673 -13.839511,-31.0501821 -31.050185,-31.0501836 z m 0,38.5022286 c -4.080881,0 -7.452044,-3.371163 -7.452044,-7.452045 0,-4.080881 3.371163,-7.452044 7.452044,-7.452044 4.080881,0 7.452044,3.371163 7.452044,7.452044 0,4.080882 -3.371163,7.452045 -7.452044,7.452045 z"
   id="path3049" /><path
   style="opacity:0.11;fill-rule:nonzero;stroke:none;stroke-width:1.49041;stroke-miterlimit:4"
   d="m 35.214354,20.269803 c -8.40976,0 -15.059338,6.845153 -15.059338,15.059336 0,8.409762 6.845156,15.059337 15.059338,15.059337 8.40976,0 15.059337,-6.845152 15.059337,-15.059337 0,-8.40976 -6.845155,-15.059336 -15.059337,-15.059336 z m 0,23.273521 c -4.498243,0 -8.214182,-3.715939 -8.214182,-8.214185 0,-4.498243 3.715939,-8.214183 8.214182,-8.214183 4.498243,0 8.214182,3.71594 8.214182,8.214183 0,4.498246 -3.715939,8.214185 -8.214182,8.214185 z"
   id="path3051" /><path
   id="path3916"
   d="M 43.523539,6.5183959 38.163146,27.376163 c 1.676268,0.446402 3.0168,1.483657 3.927417,2.919028 L 60.560037,19.04367 C 56.781481,12.888707 50.717064,8.360319 43.523539,6.5183959 Z"
   style="fill:url(#linearGradient200);fill-opacity:1;fill-rule:nonzero;stroke:none;stroke-width:1.49041;stroke-miterlimit:4;stroke-opacity:1" /><path
   style="fill:url(#linearGradient4222);fill-opacity:1;fill-rule:nonzero;stroke:none;stroke-width:1.49041;stroke-miterlimit:4;stroke-opacity:1"
   d="M 24.723095,63.298234 31.780561,42.951921 C 30.146679,42.369183 28.895987,41.225203 28.10649,39.71981 L 8.7743075,49.414394 c 3.2596105,6.444844 8.9310955,11.456598 15.9487875,13.88384 z"
   id="path4214" /><path
   sodipodi:nodetypes="cccccc"
   id="path5264"
   d="m 35.214348,5.8225702 c -16.355066,0 -29.5065625,13.1514998 -29.5065625,29.5065638 0,16.355066 13.1514965,29.506563 29.5065625,29.506563 16.355066,0 29.506563,-13.151497 29.506563,-29.506563 0,-16.355064 -13.151497,-29.5065623 -29.506563,-29.5065638 z"
   style="opacity:0.546448;fill:none;fill-rule:nonzero;stroke:url(#linearGradient6042);stroke-width:1.49041;stroke-miterlimit:4;stroke-opacity:1" /><circle
   id="path6026"
   style="color:#000000;display:inline;overflow:visible;visibility:visible;opacity:0.672131;fill:none;fill-opacity:0.316384;fill-rule:nonzero;stroke:url(#linearGradient6034);stroke-width:1.38688;stroke-linecap:butt;stroke-linejoin:miter;stroke-miterlimit:4;stroke-dashoffset:0;stroke-opacity:1;marker:none;marker-start:none;marker-mid:none;marker-end:none"
   cx="35.286156"
   cy="35.357502"
   r="9.0896988" /><path
   id="path3390"
   d="m 35.214354,4.2789554 c -17.210674,0 -31.0501833,13.8395106 -31.0501833,31.0501836 0,17.210674 13.8395093,31.050185 31.0501833,31.050185 17.210674,0 31.050185,-13.839511 31.050185,-31.050185 0,-17.210673 -13.839511,-31.0501821 -31.050185,-31.0501836 z m 0,38.5022286 c -4.080881,0 -7.452044,-3.371163 -7.452044,-7.452045 0,-4.080881 3.371163,-7.452044 7.452044,-7.452044 4.080881,0 7.452044,3.371163 7.452044,7.452044 0,4.080882 -3.371163,7.452045 -7.452044,7.452045 z"
   style="opacity:0.114286;fill:url(#radialGradient3392);fill-opacity:1;fill-rule:nonzero;stroke:none;stroke-width:1.49041;stroke-miterlimit:4;stroke-opacity:1" /><path
   style="opacity:0.0971428;fill:url(#radialGradient3449);fill-opacity:1;fill-rule:nonzero;stroke:none;stroke-width:1.49041;stroke-miterlimit:4;stroke-opacity:1"
   d="m 35.214354,4.2789554 c -17.210674,0 -31.0501833,13.8395106 -31.0501833,31.0501836 0,17.210674 13.8395093,31.050185 31.0501833,31.050185 17.210674,0 31.050185,-13.839511 31.050185,-31.050185 0,-17.210673 -13.839511,-31.0501821 -31.050185,-31.0501836 z m 0,38.5022286 c -4.080881,0 -7.452044,-3.371163 -7.452044,-7.452045 0,-4.080881 3.371163,-7.452044 7.452044,-7.452044 4.080881,0 7.452044,3.371163 7.452044,7.452044 0,4.080882 -3.371163,7.452045 -7.452044,7.452045 z"
   id="path3404" /><path
   id="path3419"
   d="m 35.214354,4.2789554 c -17.210674,0 -31.0501833,13.8395106 -31.0501833,31.0501836 0,17.210674 13.8395093,31.050185 31.0501833,31.050185 17.210674,0 31.050185,-13.839511 31.050185,-31.050185 0,-17.210673 -13.839511,-31.0501821 -31.050185,-31.0501836 z m 0,38.5022286 c -4.080881,0 -7.452044,-3.371163 -7.452044,-7.452045 0,-4.080881 3.371163,-7.452044 7.452044,-7.452044 4.080881,0 7.452044,3.371163 7.452044,7.452044 0,4.080882 -3.371163,7.452045 -7.452044,7.452045 z"
   style="opacity:0.714286;fill:url(#radialGradient3429);fill-opacity:1;fill-rule:nonzero;stroke:none;stroke-width:1.49041;stroke-miterlimit:4;stroke-opacity:1" /><path
   style="opacity:0.622857;fill:url(#radialGradient3433);fill-opacity:1;fill-rule:nonzero;stroke:none;stroke-width:1.49041;stroke-miterlimit:4;stroke-opacity:1"
   d="m 35.214354,4.2789554 c -17.210674,0 -31.0501833,13.8395106 -31.0501833,31.0501836 0,17.210674 13.8395093,31.050185 31.0501833,31.050185 17.210674,0 31.050185,-13.839511 31.050185,-31.050185 0,-17.210673 -13.839511,-31.0501821 -31.050185,-31.0501836 z m 0,38.5022286 c -4.080881,0 -7.452044,-3.371163 -7.452044,-7.452045 0,-4.080881 3.371163,-7.452044 7.452044,-7.452044 4.080881,0 7.452044,3.371163 7.452044,7.452044 0,4.080882 -3.371163,7.452045 -7.452044,7.452045 z"
   id="path3431" /><path
   id="path3441"
   d="m 35.214354,4.2789554 c -17.210674,0 -31.0501833,13.8395106 -31.0501833,31.0501836 0,17.210674 13.8395093,31.050185 31.0501833,31.050185 17.210674,0 31.050185,-13.839511 31.050185,-31.050185 0,-17.210673 -13.839511,-31.0501821 -31.050185,-31.0501836 z m 0,38.5022286 c -4.080881,0 -7.452044,-3.371163 -7.452044,-7.452045 0,-4.080881 3.371163,-7.452044 7.452044,-7.452044 4.080881,0 7.452044,3.371163 7.452044,7.452044 0,4.080882 -3.371163,7.452045 -7.452044,7.452045 z"
   style="opacity:0.371429;fill:url(#radialGradient3443);fill-opacity:1;fill-rule:nonzero;stroke:none;stroke-width:1.49041;stroke-miterlimit:4;stroke-opacity:1" /><path
   style="opacity:0.234286;fill:url(#radialGradient3447);fill-opacity:1;fill-rule:nonzero;stroke:none;stroke-width:1.49041;stroke-miterlimit:4;stroke-opacity:1"
   d="m 35.214354,4.2789554 c -17.210674,0 -31.0501833,13.8395106 -31.0501833,31.0501836 0,17.210674 13.8395093,31.050185 31.0501833,31.050185 17.210674,0 31.050185,-13.839511 31.050185,-31.050185 0,-17.210673 -13.839511,-31.0501821 -31.050185,-31.0501836 z m 0,38.5022286 c -4.080881,0 -7.452044,-3.371163 -7.452044,-7.452045 0,-4.080881 3.371163,-7.452044 7.452044,-7.452044 4.080881,0 7.452044,3.371163 7.452044,7.452044 0,4.080882 -3.371163,7.452045 -7.452044,7.452045 z"
   id="path3445" /><g
   id="g4367"
   transform="matrix(2.1983081,0,0,2.1983081,-34.480558,-35.589966)"><ellipse
     style="display:inline;overflow:visible;visibility:visible;opacity:0.3;fill:url(#radialGradient2838-902-337-741-596-696-730-201-106-486);fill-opacity:1;fill-rule:evenodd;stroke:none;stroke-width:2;stroke-linecap:round;stroke-linejoin:round;stroke-miterlimit:4;stroke-dasharray:none;stroke-dashoffset:0;stroke-opacity:1;marker:none;marker-start:none;marker-mid:none;marker-end:none"
     id="path1344"
     transform="matrix(0.5174386,0,0,0.6134926,25.372951,21.32076)"
     cx="23.25"
     cy="35.375"
     rx="18.5"
     ry="7.375" /><path
     sodipodi:nodetypes="cccccccccccccc"
     id="path7042"
     d="m 46.911332,24.363995 c 0,0 -11.933426,1.739033 -11.933426,1.739033 v 13.362636 c -0.851681,-0.342115 -2.034458,-0.431548 -3.331011,-0.11503 -2.254126,0.550284 -3.869334,2.02421 -3.62207,3.278351 0.247263,1.25414 2.273462,1.834785 4.527587,1.284501 2.130109,-0.520009 3.976061,-1.863669 3.933896,-3.067463 l 0.08085,-11.675532 c 0,0 8.760472,-1.776249 8.760472,-1.776249 v 10.603983 c -5.303745,-0.920239 -6.877897,1.774979 -6.630634,3.02912 0.247263,1.25414 2.273463,1.834784 4.527588,1.2845 2.000094,-0.48827 3.431865,-1.695209 3.57356,-2.837403 z"
     style="display:block;visibility:visible;fill:#333333;fill-opacity:1;fill-rule:nonzero;stroke:#1e1e1e;stroke-width:0.563422;stroke-linecap:round;stroke-linejoin:round;stroke-miterlimit:4;stroke-dashoffset:0;stroke-opacity:1;marker:none;marker-start:none;marker-mid:none;marker-end:none" /><path
     style="display:block;visibility:visible;opacity:0.2;fill:none;fill-opacity:1;fill-rule:nonzero;stroke:#7a7a7a;stroke-width:0.563;stroke-linecap:butt;stroke-linejoin:miter;stroke-miterlimit:4;stroke-dasharray:none;stroke-dashoffset:0;stroke-opacity:1;marker:none;marker-start:none;marker-mid:none;marker-end:none"
     d="m 46.447727,25.039134 c 0,0 -10.960265,1.739034 -10.960265,1.739034 v 13.397658 c -3.914555,-1.168893 -7.106038,1.125397 -6.870897,2.318047 0.364499,2.036204 7.439925,0.676213 7.399826,-1.925605 l 0.07689,-11.946644 c 0,0 9.753911,-1.774424 9.753911,-1.774424 v 11.924558 c -3.915087,-1.181984 -6.86408,0.844401 -6.628939,2.037053 0.29982,1.959516 6.404972,1.296532 7.121838,-1.630139 z"
     id="path2311"
     sodipodi:nodetypes="ccccccccccc" /><ellipse
     style="display:block;overflow:visible;visibility:visible;opacity:0.511765;fill:url(#radialGradient2840-148-565-578-83-380-665-632-763-450);fill-opacity:1;fill-rule:nonzero;stroke:none;stroke-width:1;stroke-linecap:butt;stroke-linejoin:miter;stroke-miterlimit:4;stroke-dasharray:none;stroke-dashoffset:0;stroke-opacity:1;marker:none;marker-start:none;marker-mid:none;marker-end:none"
     id="path2313"
     transform="matrix(0.3800669,-0.06849338,0.05776943,0.4506201,27.392702,27.081985)"
     cx="5.875"
     cy="32.75"
     rx="6.375"
     ry="3.25" /><ellipse
     transform="matrix(0.3800669,-0.06849338,0.05776943,0.4506201,37.659981,25.342951)"
     id="path2323"
     style="display:block;overflow:visible;visibility:visible;opacity:0.511765;fill:url(#radialGradient2842-682-290-105-167-847-672-480-43-847);fill-opacity:1;fill-rule:nonzero;stroke:none;stroke-width:1;stroke-linecap:butt;stroke-linejoin:miter;stroke-miterlimit:4;stroke-dasharray:none;stroke-dashoffset:0;stroke-opacity:1;marker:none;marker-start:none;marker-mid:none;marker-end:none"
     cx="5.875"
     cy="32.75"
     rx="6.375"
     ry="3.25" /></g></svg>
