<?xml version="1.0" encoding="UTF-8"?>
<svg xmlns="http://www.w3.org/2000/svg" xmlns:xlink="http://www.w3.org/1999/xlink" viewBox="0 0 48 48" width="48px" height="48px">
<g id="surface45957583">
<path style=" stroke:none;fill-rule:evenodd;fill:rgb(0%,32.941177%,61.56863%);fill-opacity:1;" d="M 22.769531 0.800781 C 23.53125 0.375 24.46875 0.375 25.226562 0.800781 C 28.984375 2.910156 40.292969 9.257812 44.050781 11.367188 C 44.8125 11.792969 45.28125 12.582031 45.28125 13.433594 C 45.28125 17.652344 45.28125 30.347656 45.28125 34.566406 C 45.28125 35.417969 44.8125 36.207031 44.050781 36.632812 C 40.292969 38.742188 28.984375 45.089844 25.226562 47.199219 C 24.46875 47.625 23.53125 47.625 22.769531 47.199219 C 19.015625 45.089844 7.707031 38.742188 3.949219 36.632812 C 3.1875 36.207031 2.71875 35.417969 2.71875 34.566406 C 2.71875 30.347656 2.71875 17.652344 2.71875 13.433594 C 2.71875 12.582031 3.1875 11.792969 3.949219 11.367188 C 7.707031 9.257812 19.015625 2.910156 22.769531 0.800781 Z M 22.769531 0.800781 "/>
<path style=" stroke:none;fill-rule:evenodd;fill:rgb(0%,52.549022%,83.137256%);fill-opacity:1;" d="M 3.058594 35.652344 C 2.761719 35.253906 2.71875 34.875 2.71875 34.367188 C 2.71875 30.171875 2.71875 17.550781 2.71875 13.355469 C 2.71875 12.507812 3.1875 11.722656 3.945312 11.300781 C 7.6875 9.203125 18.957031 2.890625 22.703125 0.792969 C 23.460938 0.367188 24.488281 0.378906 25.246094 0.800781 C 28.992188 2.898438 40.222656 9.15625 43.964844 11.253906 C 44.269531 11.421875 44.5 11.628906 44.707031 11.898438 Z M 3.058594 35.652344 "/>
<path style=" stroke:none;fill-rule:evenodd;fill:rgb(100%,100%,100%);fill-opacity:1;" d="M 24 8.320312 C 32.652344 8.320312 39.679688 15.347656 39.679688 24 C 39.679688 32.652344 32.652344 39.679688 24 39.679688 C 15.347656 39.679688 8.320312 32.652344 8.320312 24 C 8.320312 15.347656 15.347656 8.320312 24 8.320312 Z M 24 16.160156 C 28.328125 16.160156 31.839844 19.671875 31.839844 24 C 31.839844 28.328125 28.328125 31.839844 24 31.839844 C 19.671875 31.839844 16.160156 28.328125 16.160156 24 C 16.160156 19.671875 19.671875 16.160156 24 16.160156 Z M 24 16.160156 "/>
<path style=" stroke:none;fill-rule:evenodd;fill:rgb(0%,45.882353%,75.294119%);fill-opacity:1;" d="M 44.703125 11.910156 C 45.28125 12.449219 45.269531 13.265625 45.269531 13.90625 C 45.269531 18.15625 45.234375 30.246094 45.28125 34.496094 C 45.285156 34.941406 45.136719 35.410156 44.917969 35.761719 L 23.542969 24 Z M 44.703125 11.910156 "/>
<path style=" stroke:none;fill-rule:evenodd;fill:rgb(100%,100%,100%);fill-opacity:1;" d="M 31.839844 20.640625 L 34.078125 20.640625 L 34.078125 27.359375 L 31.839844 27.359375 Z M 39.679688 20.640625 L 41.921875 20.640625 L 41.921875 27.359375 L 39.679688 27.359375 Z M 39.679688 20.640625 "/>
<path style=" stroke:none;fill-rule:evenodd;fill:rgb(100%,100%,100%);fill-opacity:1;" d="M 29.601562 22.878906 L 36.320312 22.878906 L 36.320312 25.121094 L 29.601562 25.121094 Z M 37.441406 22.878906 L 44.160156 22.878906 L 44.160156 25.121094 L 37.441406 25.121094 Z M 37.441406 22.878906 "/>
</g>
</svg>
