<?xml version="1.0" encoding="UTF-8"?>
<svg xmlns="http://www.w3.org/2000/svg" xmlns:xlink="http://www.w3.org/1999/xlink" viewBox="0 0 48 48" width="48px" height="48px">
<g id="surface45931228">
<path style=" stroke:none;fill-rule:nonzero;fill:rgb(40.784314%,15.686275%,46.27451%);fill-opacity:1;" d="M 22.769531 0.800781 C 23.53125 0.375 24.46875 0.375 25.226562 0.800781 C 28.984375 2.910156 40.292969 9.257812 44.050781 11.367188 C 44.8125 11.792969 45.28125 12.582031 45.28125 13.433594 C 45.28125 17.652344 45.28125 30.347656 45.28125 34.566406 C 45.28125 35.417969 44.8125 36.207031 44.050781 36.632812 C 40.292969 38.742188 28.984375 45.089844 25.226562 47.199219 C 24.46875 47.625 23.53125 47.625 22.769531 47.199219 C 19.015625 45.089844 7.707031 38.742188 3.949219 36.632812 C 3.1875 36.207031 2.71875 35.417969 2.71875 34.566406 C 2.71875 30.347656 2.71875 17.652344 2.71875 13.433594 C 2.71875 12.582031 3.1875 11.792969 3.949219 11.367188 C 7.707031 9.257812 19.015625 2.910156 22.769531 0.800781 Z M 22.769531 0.800781 "/>
<path style=" stroke:none;fill-rule:nonzero;fill:rgb(60.784316%,28.627452%,57.647061%);fill-opacity:1;" d="M 3.058594 35.652344 C 2.761719 35.253906 2.71875 34.875 2.71875 34.367188 C 2.71875 30.171875 2.71875 17.550781 2.71875 13.355469 C 2.71875 12.507812 3.1875 11.722656 3.945312 11.300781 C 7.6875 9.203125 18.957031 2.890625 22.703125 0.792969 C 23.460938 0.367188 24.488281 0.378906 25.246094 0.800781 C 28.992188 2.898438 40.222656 9.15625 43.964844 11.253906 C 44.269531 11.421875 44.5 11.628906 44.707031 11.898438 Z M 3.058594 35.652344 "/>
<path style=" stroke:none;fill-rule:nonzero;fill:rgb(100%,100%,100%);fill-opacity:1;" d="M 24 8.320312 C 15.34375 8.320312 8.320312 15.34375 8.320312 24 C 8.320312 32.65625 15.34375 39.679688 24 39.679688 C 32.65625 39.679688 39.679688 32.65625 39.679688 24 C 39.679688 15.34375 32.65625 8.320312 24 8.320312 Z M 24 31.839844 C 19.675781 31.839844 16.160156 28.324219 16.160156 24 C 16.160156 19.675781 19.675781 16.160156 24 16.160156 C 28.324219 16.160156 31.839844 19.675781 31.839844 24 C 31.839844 28.324219 28.324219 31.839844 24 31.839844 Z M 24 31.839844 "/>
<path style=" stroke:none;fill-rule:nonzero;fill:rgb(50.980395%,18.82353%,52.156866%);fill-opacity:1;" d="M 44.703125 11.910156 C 45.28125 12.449219 45.269531 13.265625 45.269531 13.90625 C 45.269531 18.15625 45.234375 30.246094 45.28125 34.496094 C 45.285156 34.941406 45.136719 35.410156 44.917969 35.761719 L 23.542969 24 Z M 44.703125 11.910156 "/>
<path style=" stroke:none;fill-rule:nonzero;fill:rgb(100%,100%,100%);fill-opacity:1;" d="M 35.199219 19.519531 L 36.320312 19.519531 L 36.320312 28.480469 L 35.199219 28.480469 Z M 38.558594 19.519531 L 39.679688 19.519531 L 39.679688 28.480469 L 38.558594 28.480469 Z M 38.558594 19.519531 "/>
<path style=" stroke:none;fill-rule:nonzero;fill:rgb(100%,100%,100%);fill-opacity:1;" d="M 32.960938 25.121094 L 41.921875 25.121094 L 41.921875 26.238281 L 32.960938 26.238281 Z M 32.960938 21.761719 L 41.921875 21.761719 L 41.921875 22.878906 L 32.960938 22.878906 Z M 32.960938 21.761719 "/>
</g>
</svg>
