<?xml version="1.0" encoding="UTF-8"?>
<svg xmlns="http://www.w3.org/2000/svg" xmlns:xlink="http://www.w3.org/1999/xlink" viewBox="0 0 48 48" width="48px" height="48px">
<g id="surface46233121">
<path style=" stroke:none;fill-rule:nonzero;fill:rgb(0.784314%,46.666667%,74.117649%);fill-opacity:1;" d="M 44.738281 0.820312 L 3.261719 0.820312 L 6.921875 42.300781 L 24 47.179688 L 41.078125 42.300781 Z M 44.738281 0.820312 "/>
<path style=" stroke:none;fill-rule:nonzero;fill:rgb(1.176471%,60.784316%,89.803922%);fill-opacity:1;" d="M 24 4.480469 L 24 43.398438 L 37.664062 39.492188 L 40.714844 4.480469 Z M 24 4.480469 "/>
<path style=" stroke:none;fill-rule:nonzero;fill:rgb(100%,100%,100%);fill-opacity:1;" d="M 35.101562 10.578125 L 24 10.578125 L 24 15.460938 L 29.976562 15.460938 L 29.613281 20.339844 L 24 20.339844 L 24 25.21875 L 29.367188 25.21875 L 29.003906 30.710938 L 24 32.417969 L 24 37.542969 L 33.636719 34.371094 L 34.492188 20.339844 Z M 35.101562 10.578125 "/>
<path style=" stroke:none;fill-rule:nonzero;fill:rgb(93.333334%,93.333334%,93.333334%);fill-opacity:1;" d="M 24 10.578125 L 24 15.460938 L 13.140625 15.460938 L 12.777344 10.578125 Z M 18.386719 20.339844 L 18.632812 25.21875 L 24 25.21875 L 24 20.339844 Z M 18.875 27.660156 L 13.996094 27.660156 L 14.363281 34.371094 L 24 37.542969 L 24 32.417969 L 18.996094 30.710938 Z M 18.875 27.660156 "/>
</g>
</svg>
