<?xml version="1.0" encoding="UTF-8"?>
<svg xmlns="http://www.w3.org/2000/svg" xmlns:xlink="http://www.w3.org/1999/xlink" viewBox="0 0 48 48" width="48px" height="48px">
<g id="surface46231707">
<path style=" stroke:none;fill-rule:nonzero;fill:rgb(90.196079%,31.764707%,0%);fill-opacity:1;" d="M 44.738281 0.820312 L 3.261719 0.820312 L 6.921875 42.300781 L 24 47.179688 L 41.078125 42.300781 Z M 44.738281 0.820312 "/>
<path style=" stroke:none;fill-rule:nonzero;fill:rgb(100%,42.745098%,0%);fill-opacity:1;" d="M 24 4.480469 L 24 43.398438 L 37.664062 39.492188 L 40.714844 4.480469 Z M 24 4.480469 "/>
<path style=" stroke:none;fill-rule:nonzero;fill:rgb(100%,100%,100%);fill-opacity:1;" d="M 24 25.21875 L 24 20.339844 L 34.492188 20.339844 L 33.636719 34.371094 L 24 37.542969 L 24 32.417969 L 29.003906 30.710938 L 29.367188 25.21875 Z M 34.859375 15.460938 L 35.222656 10.578125 L 24 10.578125 L 24 15.460938 Z M 34.859375 15.460938 "/>
<path style=" stroke:none;fill-rule:nonzero;fill:rgb(93.333334%,93.333334%,93.333334%);fill-opacity:1;" d="M 24 32.417969 L 24 37.542969 L 14.363281 34.371094 L 13.875 27.660156 L 18.753906 27.660156 L 18.996094 30.710938 Z M 18.023438 15.460938 L 24 15.460938 L 24 10.578125 L 12.898438 10.578125 L 13.753906 25.21875 L 24 25.21875 L 24 20.339844 L 18.386719 20.339844 Z M 18.023438 15.460938 "/>
</g>
</svg>
