<?xml version="1.0" encoding="UTF-8"?>
<svg xmlns="http://www.w3.org/2000/svg" xmlns:xlink="http://www.w3.org/1999/xlink" viewBox="0 0 48 48" width="48px" height="48px">
<g id="surface45886005">
<path style=" stroke:none;fill-rule:nonzero;fill:rgb(95.686275%,26.274511%,21.176471%);fill-opacity:1;" d="M 23.597656 25.03125 C 22.449219 23.183594 21.617188 21.648438 20.464844 18.757812 C 18.511719 13.878906 32.324219 9.472656 26.726562 1 C 29.152344 6.851562 18.011719 10.46875 16.976562 15.34375 C 16.03125 19.824219 23.589844 25.03125 23.597656 25.03125 Z M 23.597656 25.03125 "/>
<path style=" stroke:none;fill-rule:nonzero;fill:rgb(95.686275%,26.274511%,21.176471%);fill-opacity:1;" d="M 23.859375 16.261719 C 23.640625 19.152344 26.421875 20.695312 26.503906 22.808594 C 26.566406 24.53125 24.839844 25.964844 24.839844 25.964844 C 24.839844 25.964844 27.976562 25.347656 28.957031 22.722656 C 30.042969 19.808594 26.847656 17.8125 27.175781 15.480469 C 27.480469 13.253906 34.109375 9.105469 34.109375 9.105469 C 34.109375 9.105469 24.359375 9.753906 23.859375 16.261719 Z M 23.859375 16.261719 "/>
<path style=" stroke:none;fill-rule:nonzero;fill:rgb(8.235294%,39.607844%,75.294119%);fill-opacity:1;" d="M 33.296875 25.214844 C 35.3125 24.761719 37.015625 26.042969 37.015625 27.523438 C 37.015625 30.859375 32.390625 34.015625 32.390625 34.015625 C 32.390625 34.015625 39.550781 33.160156 39.550781 27.683594 C 39.550781 24.0625 36.035156 23.15625 33.296875 25.214844 Z M 29.898438 27.902344 C 29.898438 27.902344 32.128906 26.3125 32.726562 25.71875 C 27.246094 26.878906 14.742188 27.035156 14.742188 26.027344 C 14.742188 25.097656 18.773438 24.144531 18.773438 24.144531 C 18.773438 24.144531 9.835938 24.015625 9.835938 26.652344 C 9.835938 29.398438 21.535156 29.597656 29.898438 27.902344 Z M 29.898438 27.902344 "/>
<path style=" stroke:none;fill-rule:nonzero;fill:rgb(8.235294%,39.607844%,75.294119%);fill-opacity:1;" d="M 28.523438 30.40625 C 23.339844 32.128906 13.789062 31.578125 16.617188 29.265625 C 15.242188 29.265625 13.199219 30.371094 13.199219 31.4375 C 13.199219 33.574219 23.527344 35.222656 31.171875 32.09375 Z M 28.523438 30.40625 "/>
<path style=" stroke:none;fill-rule:nonzero;fill:rgb(8.235294%,39.607844%,75.294119%);fill-opacity:1;" d="M 17.890625 34.050781 C 16.007812 34.050781 14.789062 35.261719 14.789062 36.144531 C 14.789062 38.894531 26.011719 39.171875 30.460938 36.382812 L 27.632812 34.503906 C 24.3125 35.964844 15.964844 36.164062 17.890625 34.050781 Z M 17.890625 34.050781 "/>
<path style=" stroke:none;fill-rule:nonzero;fill:rgb(8.235294%,39.607844%,75.294119%);fill-opacity:1;" d="M 38.125 38.527344 C 38.125 37.449219 36.910156 36.941406 36.476562 36.699219 C 39.039062 42.878906 10.8125 42.398438 10.8125 38.753906 C 10.8125 37.921875 12.890625 37.109375 14.808594 37.496094 L 13.175781 36.53125 C 9.347656 35.929688 6.75 37.613281 6.75 38.96875 C 6.75 45.296875 38.125 44.992188 38.125 38.527344 Z M 38.125 38.527344 "/>
<path style=" stroke:none;fill-rule:nonzero;fill:rgb(8.235294%,39.607844%,75.294119%);fill-opacity:1;" d="M 41.25 40.792969 C 36.480469 45.503906 24.390625 47.21875 12.234375 44.308594 C 24.390625 49.488281 41.191406 46.570312 41.25 40.792969 Z M 41.25 40.792969 "/>
</g>
</svg>
