<?xml version="1.0" encoding="UTF-8"?>
<svg xmlns="http://www.w3.org/2000/svg" xmlns:xlink="http://www.w3.org/1999/xlink" viewBox="0 0 48 48" width="48px" height="48px">
<g id="surface45791242">
<path style=" stroke:none;fill-rule:nonzero;fill:rgb(100%,83.92157%,0%);fill-opacity:1;" d="M 0.601562 47.398438 L 0.601562 0.601562 L 47.398438 0.601562 L 47.398438 47.398438 Z M 0.601562 47.398438 "/>
<path style=" stroke:none;fill-rule:nonzero;fill:rgb(0%,0%,0.392157%);fill-opacity:1;" d="M 31.199219 35.632812 C 32.097656 37.09375 33.078125 38.492188 35.148438 38.492188 C 36.886719 38.492188 37.800781 37.628906 37.800781 36.433594 C 37.800781 35 36.855469 34.492188 34.941406 33.660156 L 33.894531 33.210938 C 30.867188 31.925781 28.851562 30.316406 28.851562 26.917969 C 28.851562 23.785156 31.25 21.402344 34.996094 21.402344 C 37.667969 21.402344 39.585938 22.324219 40.96875 24.746094 L 37.699219 26.835938 C 36.980469 25.550781 36.203125 25.046875 34.996094 25.046875 C 33.769531 25.046875 32.988281 25.820312 32.988281 26.835938 C 32.988281 28.089844 33.769531 28.59375 35.570312 29.371094 L 36.617188 29.820312 C 40.1875 31.339844 42.199219 32.890625 42.199219 36.378906 C 42.199219 40.140625 39.230469 42.199219 35.246094 42.199219 C 31.347656 42.199219 29.132812 40.242188 27.898438 37.820312 Z M 16.136719 35.738281 C 16.796875 36.914062 17.796875 37.820312 19.234375 37.820312 C 20.609375 37.820312 21.398438 37.277344 21.398438 35.164062 L 21.398438 21.398438 L 25.734375 21.398438 L 25.734375 35.832031 C 25.734375 40.207031 23.195312 42.199219 19.488281 42.199219 C 16.136719 42.199219 13.71875 39.929688 12.734375 37.820312 Z M 16.136719 35.738281 "/>
</g>
</svg>
