<?xml version="1.0" encoding="UTF-8"?>
<svg xmlns="http://www.w3.org/2000/svg" width="343" height="126"><g><title>Layer 1</title><g id="svg_1" fill="#FFF"><path fill="#4f5b93" id="svg_2" transform="translate(548, 112) translate(0, 3)" d="m-496.936,-70.614c7.962,0 13.268,1.468 15.921,4.408c2.652,2.94 3.283,7.986 1.896,15.136c-1.45,7.446 -4.238,12.761 -8.375,15.945c-4.136,3.185 -10.43,4.775 -18.879,4.775l-12.748,0l7.825,-40.264l14.36,0zm-51.064,81.024l20.958,0l4.972,-25.578l17.95,0c7.922,0 14.437,-0.83 19.554,-2.496c5.115,-1.662 9.763,-4.453 13.948,-8.37c3.513,-3.227 6.353,-6.788 8.53,-10.682c2.173,-3.89 3.718,-8.186 4.631,-12.885c2.217,-11.404 0.543,-20.287 -5.016,-26.65c-5.557,-6.363 -14.403,-9.545 -26.527,-9.545l-40.3,0l-18.7,96.206m105.935,-121.784l20.792,0l-4.971,25.578l18.523,0c11.656,0 19.695,2.033 24.12,6.098c4.424,4.065 5.75,10.654 3.98,19.761l-8.7,44.77l-21.122,0l8.271,-42.568c0.942,-4.842 0.597,-8.145 -1.039,-9.907c-1.634,-1.761 -5.112,-2.642 -10.432,-2.642l-16.618,0l-10.71,55.116l-20.795,0l18.7,-96.206m108.709,40.76c7.962,0 13.268,1.468 15.921,4.408c2.652,2.94 3.284,7.986 1.896,15.136c-1.45,7.446 -4.238,12.761 -8.375,15.945c-4.136,3.185 -10.43,4.775 -18.879,4.775l-12.748,0l7.825,-40.264l14.36,0zm-51.064,81.024l20.958,0l4.97,-25.578l17.952,0c7.92,0 14.436,-0.83 19.553,-2.496c5.115,-1.662 9.764,-4.453 13.949,-8.37c3.512,-3.227 6.353,-6.788 8.53,-10.682c2.173,-3.89 3.718,-8.186 4.63,-12.885c2.218,-11.404 0.545,-20.287 -5.014,-26.65c-5.56,-6.363 -14.404,-9.545 -26.528,-9.545l-40.302,0l-18.697,96.206"/><path fill="#4f5b93" id="svg_3" transform="translate(548, 112)" d="m-231.036,-63.876c-5.653,-13.604 -10.537,-25.357 -5.765,-33.57c1.773,-2.492 3.8,-3.755 6.022,-3.755c4.474,0 8.56,4.893 8.6,4.943l5.701,6.92l-3.564,-8.225c-0.256,-0.59 -6.385,-14.437 -17.385,-14.437c-3.847,0 -7.787,1.732 -11.71,5.146l-0.125,0.127c-9.51,10.993 -0.159,31.75 8.091,50.062l0.02,0.044l6.122,14.232s0.64,0.51 0,0c2.837,7.27 5.561,16.01 3.86,22.373c-2.648,9.976 -11.504,16.849 -11.593,16.917l-5.736,4.393l6.887,-2.184c0.651,-0.206 16.007,-5.212 19.685,-18.518c2.301,-10.89 -0.596,-21.788 -3.531,-30.233c0.382,-0.315 -0.393,0.333 0,0l-5.348,-13.677"/></g><path id="svg_4" d="m333.91,9.388l-7.136,-7.79l5.096,9.254c0.064,0.115 6.257,11.682 -1.563,25.209c-2.945,4.166 -7.35,8.407 -13.112,12.62l-10.365,6.656c-0.111,-0.248 -0.056,-0.124 0,-0.002l-0.365,0.264l0.053,-0.01l-0.053,0.01c-11.465,6.595 -22.187,10.636 -22.366,10.707c-15.94,7.096 -25.877,18.145 -27.261,30.313c-1.05,9.23 3.168,18.153 11.572,24.482l0.11,0.074c5.283,3.17 10.999,4.778 16.987,4.778c15.74,0 28.016,-10.891 28.532,-11.356l7.654,-6.893l-9.093,4.838c-0.077,0.04 -7.65,4.02 -15.569,4.02c-7.06,0 -12.14,-3.149 -15.101,-9.36c-3.783,-13.45 9.477,-22.629 24.826,-33.25c2.037,-1.41 4.133,-2.86 6.215,-4.34c0.012,0.033 0.116,-0.119 0.13,-0.086l9.084,-6.75c0.137,-0.214 0.37,-0.38 0.358,-0.417c7.548,-6.222 17.414,-15.901 19.717,-29.482c1.781,-12.267 -7.937,-23.037 -8.35,-23.49l0,0.001z" fill="#0F0F0F"/></g></svg>