<?xml version="1.0" encoding="UTF-8"?>
<svg xmlns="http://www.w3.org/2000/svg" xmlns:xlink="http://www.w3.org/1999/xlink" viewBox="0 0 48 48" width="48px" height="48px">
<g id="surface45907960">
<path style=" stroke:none;fill-rule:nonzero;fill:rgb(0.784314%,46.666667%,74.117649%);fill-opacity:1;" d="M 24.058594 0.628906 C 22.144531 0.636719 20.820312 0.804688 19.214844 1.082031 C 14.484375 1.90625 13.621094 3.636719 13.621094 6.824219 L 13.621094 11.699219 L 24.691406 11.699219 L 24.691406 14.160156 L 7.851562 14.160156 C 4.609375 14.160156 1.769531 15.6875 0.871094 19.347656 C -0.144531 23.550781 -0.191406 26.183594 0.871094 30.574219 C 1.675781 33.847656 3.453125 36.300781 6.695312 36.300781 L 11.164062 36.300781 L 11.164062 30.023438 C 11.164062 26.375 14.464844 22.769531 18.253906 22.769531 L 27.152344 22.769531 C 30.253906 22.769531 33.300781 20.480469 33.300781 17.386719 L 33.300781 6.824219 C 33.300781 3.824219 31.140625 1.582031 28.113281 1.078125 C 28.1875 1.070312 25.953125 0.621094 24.058594 0.628906 Z M 17.925781 5.550781 C 18.9375 5.550781 19.773438 6.382812 19.773438 7.398438 C 19.773438 8.421875 18.9375 9.238281 17.925781 9.238281 C 16.898438 9.238281 16.082031 8.421875 16.082031 7.398438 C 16.082031 6.386719 16.898438 5.550781 17.925781 5.550781 Z M 17.925781 5.550781 "/>
<path style=" stroke:none;fill-rule:nonzero;fill:rgb(100%,75.686276%,2.745098%);fill-opacity:1;" d="M 22.867188 47.371094 C 24.777344 47.363281 26.105469 47.195312 27.707031 46.917969 C 32.441406 46.09375 33.300781 44.363281 33.300781 41.175781 L 33.300781 36.300781 L 22.234375 36.300781 L 22.234375 33.839844 L 39.074219 33.839844 C 42.316406 33.839844 45.15625 32.3125 46.054688 28.652344 C 47.070312 24.449219 47.117188 21.816406 46.054688 17.425781 C 45.246094 14.152344 43.472656 11.699219 40.230469 11.699219 L 35.761719 11.699219 L 35.761719 17.976562 C 35.761719 21.625 32.457031 25.230469 28.671875 25.230469 L 19.769531 25.230469 C 16.667969 25.230469 13.621094 27.519531 13.621094 30.613281 L 13.621094 41.175781 C 13.621094 44.175781 15.785156 46.417969 18.808594 46.921875 C 18.734375 46.929688 20.96875 47.378906 22.867188 47.371094 Z M 28.996094 42.449219 C 27.988281 42.449219 27.152344 41.617188 27.152344 40.601562 C 27.152344 39.578125 27.988281 38.761719 28.996094 38.761719 C 30.027344 38.761719 30.84375 39.578125 30.84375 40.601562 C 30.84375 41.613281 30.027344 42.449219 28.996094 42.449219 Z M 28.996094 42.449219 "/>
</g>
</svg>
