<?xml version="1.0" encoding="UTF-8"?>
<svg xmlns="http://www.w3.org/2000/svg" xmlns:xlink="http://www.w3.org/1999/xlink" viewBox="0 0 48 48" width="48px" height="48px">
<g id="surface45869570">
<path style=" stroke:none;fill-rule:nonzero;fill:rgb(9.803922%,46.27451%,82.352942%);fill-opacity:1;" d="M 0.601562 0.601562 L 47.398438 0.601562 L 47.398438 47.398438 L 0.601562 47.398438 Z M 0.601562 0.601562 "/>
<path style=" stroke:none;fill-rule:nonzero;fill:rgb(100%,100%,100%);fill-opacity:1;" d="M 28.535156 21.398438 L 11.296875 21.398438 L 11.296875 25.644531 L 17.480469 25.644531 L 17.480469 44.800781 L 22.378906 44.800781 L 22.378906 25.644531 L 28.535156 25.644531 Z M 28.535156 21.398438 "/>
<path style=" stroke:none;fill-rule:nonzero;fill:rgb(100%,100%,100%);fill-opacity:1;" d="M 43.753906 26.710938 C 43.753906 26.710938 41.429688 25.160156 38.804688 25.160156 C 36.175781 25.160156 35.230469 26.40625 35.230469 27.742188 C 35.230469 31.183594 44.828125 30.839844 44.828125 37.765625 C 44.828125 48.4375 30.195312 43.707031 30.195312 43.707031 L 30.195312 38.585938 C 30.195312 38.585938 32.996094 40.695312 36.351562 40.695312 C 39.707031 40.695312 39.578125 38.5 39.578125 38.199219 C 39.578125 35.015625 30.070312 35.015625 30.070312 27.957031 C 30.070312 18.363281 43.921875 22.148438 43.921875 22.148438 Z M 43.753906 26.710938 "/>
</g>
</svg>
